<svg width="24" height="26" viewBox="0 0 24 26" fill="none" xmlns="http://www.w3.org/2000/svg">
<path d="M17.6066 16.7785C17.2808 16.4548 16.8845 16.2108 16.4486 16.0659L16.4102 16.0532L12.4102 15.1436L13.3081 19.1542L13.3213 19.1938C13.4668 19.6318 13.7122 20.03 14.0381 20.3569L19.8407 26.0002L23.4102 22.4226L17.6066 16.7785ZM19.8229 23.6394L15.2226 19.1655C15.1915 19.134 15.1621 19.101 15.1345 19.0664L16.3217 17.88C16.3571 17.9084 16.3909 17.9387 16.423 17.9708L21.019 22.4406L19.8229 23.6394Z" fill="#2563EB"/>
<path d="M3.07104 23.9437C2.51161 23.9437 2.05647 23.4886 2.05647 22.9292V5.07282C2.05647 4.51339 2.51161 4.05826 3.07104 4.05826H4.74507V8.06579H14.8907V4.05826H16.514C17.0735 4.05826 17.5286 4.51339 17.5286 5.07282V13.7654L19.5577 15.7387V5.07282C19.5577 3.39453 18.1923 2.02913 16.514 2.02913H12.6877C12.269 0.848125 11.1406 0 9.81789 0C8.49516 0 7.36681 0.848125 6.94805 2.02913H3.07104C1.39275 2.02913 0.0273438 3.39453 0.0273438 5.07282V22.9292C0.0273438 24.6075 1.39275 25.9729 3.07104 25.9729H15.506L13.4197 23.9437H3.07104ZM8.80333 4.05826V3.04369C8.80333 2.48426 9.25846 2.02913 9.81789 2.02913C10.3773 2.02913 10.8325 2.48426 10.8325 3.04369V4.05826H12.8616V6.03666H6.7742V4.05826H8.80333Z" fill="#2563EB"/>
<path d="M4.20703 18.7891H9.08463V20.8203H4.20703V18.7891ZM4.20703 16.8086H11.168V14.7773H4.20703V16.8086ZM4.20703 12.7969H14.2318V10.7656H4.20703V12.7969Z" fill="#2563EB"/>
</svg>
