<svg width="22" height="22" viewBox="0 0 22 22" fill="none" xmlns="http://www.w3.org/2000/svg">
<path d="M2.40625 22H4.125V15.4688H2.40625V22ZM7.5625 22H9.28125V9.45312H7.5625V22ZM12.7188 22H14.4375V13.75H12.7188V22ZM18.7344 0C17.3128 0 16.1562 1.15655 16.1562 2.57812C16.1557 3.08654 16.3064 3.58362 16.5892 4.00615L14.3491 6.99286C14.0996 6.91457 13.8396 6.87482 13.5781 6.875C13.1936 6.87459 12.814 6.9607 12.4673 7.12697L10.748 5.4077C10.9143 5.06102 11.0004 4.68137 11 4.29688C11 2.8753 9.84345 1.71875 8.42188 1.71875C7.0003 1.71875 5.84375 2.8753 5.84375 4.29688C5.84322 4.80529 5.99391 5.30237 6.27666 5.7249L4.03657 8.71161C3.78708 8.63332 3.52711 8.59357 3.26562 8.59375C1.84405 8.59375 0.6875 9.7503 0.6875 11.1719C0.6875 12.5935 1.84405 13.75 3.26562 13.75C4.6872 13.75 5.84375 12.5935 5.84375 11.1719C5.84428 10.6635 5.69359 10.1664 5.41084 9.74385L7.65093 6.75714C7.90041 6.83543 8.16039 6.87518 8.42188 6.875C8.80636 6.87541 9.18601 6.7893 9.5327 6.62307L11.2519 8.3423C11.0857 8.68899 10.9996 9.06864 11 9.45312C11 10.8747 12.1565 12.0312 13.5781 12.0312C14.9997 12.0312 16.1562 10.8747 16.1562 9.45312C16.1568 8.94471 16.0061 8.44763 15.7233 8.0251L17.9634 5.03839C18.2129 5.11668 18.4729 5.15643 18.7344 5.15625C20.156 5.15625 21.3125 3.9997 21.3125 2.57812C21.3125 1.15655 20.156 0 18.7344 0ZM3.26562 12.0312C2.79177 12.0312 2.40625 11.6457 2.40625 11.1719C2.40625 10.698 2.79177 10.3125 3.26562 10.3125C3.73948 10.3125 4.125 10.698 4.125 11.1719C4.125 11.6457 3.73948 12.0312 3.26562 12.0312ZM8.42188 5.15625C7.94802 5.15625 7.5625 4.77073 7.5625 4.29688C7.5625 3.82302 7.94802 3.4375 8.42188 3.4375C8.89573 3.4375 9.28125 3.82302 9.28125 4.29688C9.28125 4.77073 8.89573 5.15625 8.42188 5.15625ZM13.5781 10.3125C13.1043 10.3125 12.7188 9.92698 12.7188 9.45312C12.7188 8.97927 13.1043 8.59375 13.5781 8.59375C14.052 8.59375 14.4375 8.97927 14.4375 9.45312C14.4375 9.92698 14.052 10.3125 13.5781 10.3125ZM18.7344 3.4375C18.2605 3.4375 17.875 3.05198 17.875 2.57812C17.875 2.10427 18.2605 1.71875 18.7344 1.71875C19.2082 1.71875 19.5938 2.10427 19.5938 2.57812C19.5938 3.05198 19.2082 3.4375 18.7344 3.4375ZM17.875 22H19.5938V7.73438H17.875V22Z" fill="white"/>
</svg>
