<svg width="20" height="20" viewBox="0 0 20 20" fill="none" xmlns="http://www.w3.org/2000/svg">
<path d="M10 1.5625C9.21129 1.5625 8.43906 1.67039 7.70004 1.87852V0.264845C8.45397 0.0884788 9.22572 -0.000389028 10 1.28008e-06C12.6711 1.28008e-06 15.1823 1.0402 17.0711 2.92891C17.0747 2.93258 17.0782 2.93641 17.082 2.94008L19.1844 0.838478V6.04324H13.9774L15.9769 4.04465C15.9732 4.04098 15.9698 4.03731 15.9662 4.03383C14.3726 2.4402 12.2537 1.5625 10 1.5625ZM20 10C20 9.18242 19.902 8.37996 19.7127 7.60574H18.0941C18.32 8.37324 18.4375 9.17754 18.4375 10C18.4375 12.2505 17.5623 14.3664 15.9729 15.9593L13.912 13.9143V19.0901H19.1277L17.0819 17.0599C18.9638 15.1724 20 12.6659 20 10ZM1.5625 10C1.5625 7.74629 2.4402 5.62742 4.03383 4.03383C4.05016 4.0175 4.06691 4.0016 4.08344 3.98527L6.13754 6.02387V0.847931H0.921914L2.97426 2.88465C2.9593 2.89949 2.94387 2.91395 2.92895 2.92891C1.04016 4.81766 0 7.32895 0 10C0 10.7957 0.0930859 11.5771 0.272656 12.3323H1.88781C1.67375 11.5834 1.5625 10.8003 1.5625 10ZM4.05625 15.988L6.15039 13.8948H0.943242V19.0996L2.95102 17.0926C4.83734 18.9676 7.33918 20 10 20C10.8016 20 11.5883 19.9057 12.3485 19.7235V18.1074C11.5947 18.3246 10.8061 18.4375 10 18.4375C7.75664 18.4375 5.64711 17.5676 4.05625 15.988Z" fill="#5D5D5D"/>
</svg>
