<svg width="36" height="32" viewBox="0 0 36 32" fill="none" xmlns="http://www.w3.org/2000/svg">
<path d="M2.58203 10.2923V16.959C2.58203 17.2905 2.45034 17.6084 2.21591 17.8429C1.98149 18.0773 1.66355 18.209 1.33203 18.209C1.00051 18.209 0.682568 18.0773 0.448148 17.8429C0.213727 17.6084 0.0820312 17.2905 0.0820312 16.959V10.2923C0.0820312 9.9608 0.213727 9.64286 0.448148 9.40843C0.682568 9.17402 1.00051 9.04232 1.33203 9.04232C1.66355 9.04232 1.98149 9.17402 2.21591 9.40843C2.45034 9.64286 2.58203 9.9608 2.58203 10.2923ZM34.6654 9.04232C34.3338 9.04232 34.0159 9.17402 33.7815 9.40843C33.5471 9.64286 33.4154 9.9608 33.4154 10.2923V16.959C33.4154 17.2905 33.5471 17.6084 33.7815 17.8429C34.0159 18.0773 34.3338 18.209 34.6654 18.209C34.9969 18.209 35.3148 18.0773 35.5492 17.8429C35.7837 17.6084 35.9154 17.2905 35.9154 16.959V10.2923C35.9154 9.9608 35.7837 9.64286 35.5492 9.40843C35.3148 9.17402 34.9969 9.04232 34.6654 9.04232ZM6.33203 23.6257C6.33203 24.5097 6.68322 25.3576 7.30834 25.9827C7.93346 26.6078 8.78131 26.959 9.66536 26.959H13.7734C14.0478 26.959 14.3179 27.0267 14.5598 27.1562C14.8018 27.2856 15.008 27.4728 15.1602 27.7012L17.3054 30.919C17.3815 31.0331 17.4846 31.1267 17.6055 31.1914C17.7265 31.2561 17.8615 31.29 17.9987 31.29C18.1359 31.29 18.2709 31.2561 18.3919 31.1914C18.5128 31.1267 18.6159 31.0331 18.692 30.919L20.8372 27.7012C20.9894 27.4728 21.1956 27.2856 21.4376 27.1562C21.6795 27.0267 21.9496 26.959 22.224 26.959H26.332C27.2161 26.959 28.0639 26.6078 28.6891 25.9827C29.3142 25.3576 29.6654 24.5097 29.6654 23.6257V20.2923H6.33203V23.6257ZM29.6654 8.62565V17.7923H6.33203V8.62565C6.33203 7.7416 6.68322 6.89375 7.30834 6.26863C7.93346 5.64351 8.78131 5.29232 9.66536 5.29232H16.7487V1.95898C16.7487 1.62746 16.8804 1.30952 17.1148 1.0751C17.3492 0.84068 17.6672 0.708984 17.9987 0.708984C18.3302 0.708984 18.6482 0.84068 18.8826 1.0751C19.117 1.30952 19.2487 1.62746 19.2487 1.95898V5.29232H26.332C27.2161 5.29232 28.0639 5.64351 28.6891 6.26863C29.3142 6.89375 29.6654 7.7416 29.6654 8.62565ZM14.6654 13.6257C14.6654 13.296 14.5676 12.9738 14.3845 12.6997C14.2013 12.4256 13.941 12.212 13.6365 12.0859C13.332 11.9597 12.9968 11.9267 12.6735 11.991C12.3502 12.0553 12.0533 12.2141 11.8202 12.4471C11.5871 12.6802 11.4284 12.9772 11.3641 13.3005C11.2997 13.6238 11.3328 13.9589 11.4589 14.2635C11.585 14.568 11.7987 14.8283 12.0727 15.0114C12.3468 15.1946 12.6691 15.2923 12.9987 15.2923C13.4407 15.2923 13.8646 15.1167 14.1772 14.8042C14.4898 14.4916 14.6654 14.0677 14.6654 13.6257ZM24.6654 13.6257C24.6654 13.296 24.5676 12.9738 24.3845 12.6997C24.2013 12.4256 23.941 12.212 23.6365 12.0859C23.332 11.9597 22.9968 11.9267 22.6735 11.991C22.3502 12.0553 22.0533 12.2141 21.8202 12.4471C21.5871 12.6802 21.4284 12.9772 21.3641 13.3005C21.2997 13.6238 21.3328 13.9589 21.4589 14.2635C21.585 14.568 21.7987 14.8283 22.0727 15.0114C22.3468 15.1946 22.6691 15.2923 22.9987 15.2923C23.4407 15.2923 23.8646 15.1167 24.1772 14.8042C24.4898 14.4916 24.6654 14.0677 24.6654 13.6257Z" fill="#0076F7"/>
</svg>
