<svg width="20" height="20" viewBox="0 0 20 20" fill="none" xmlns="http://www.w3.org/2000/svg">
<path d="M12.1919 13.3329C11.8873 13.6375 11.3916 13.6375 11.0869 13.3329L6.66716 8.91301C6.36252 8.60838 6.36252 8.11267 6.66716 7.80803L8.32462 6.15061L3.90476 1.73082L1.14239 4.49319C-0.380797 6.01638 -0.380797 8.49477 1.14239 10.018L9.98204 18.8576C11.5052 20.3808 13.9836 20.3808 15.5068 18.8576L18.2692 16.0952L13.8494 11.6754L12.1919 13.3329ZM14.4019 17.7527C13.4879 18.6666 12.0009 18.6666 11.087 17.7527L2.24734 8.91301C1.33342 7.9991 1.33342 6.51205 2.24734 5.59814L3.90476 3.94072L6.11465 6.15061L5.56214 6.70308C4.64826 7.617 4.64826 9.10405 5.56214 10.018L9.98196 14.4378C10.8959 15.3517 12.3829 15.3517 13.2968 14.4378L13.8493 13.8853L16.0593 16.0952L14.4019 17.7527ZM20 5.46926V3.90661H18.3385C18.2652 3.62387 18.1523 3.35288 18.0033 3.10165L19.1795 1.92553L18.0745 0.820584L16.8984 1.99671C16.6472 1.8477 16.3762 1.73487 16.0934 1.66156V0H14.5308V1.66156C14.248 1.73487 13.9771 1.8477 13.7258 1.99671L12.5497 0.820584L11.4448 1.92553L12.6209 3.10165C12.4719 3.35288 12.359 3.62387 12.2857 3.90661H10.6242V5.46926H12.2857C12.3591 5.752 12.4719 6.02298 12.6209 6.27421L11.4448 7.45034L12.5497 8.55529L13.7258 7.37916C13.9771 7.52817 14.248 7.641 14.5308 7.71431V9.37587H16.0934V7.71431C16.3762 7.641 16.6472 7.52817 16.8984 7.37916L18.0745 8.55529L19.1795 7.45034L18.0033 6.27421C18.1523 6.02299 18.2652 5.752 18.3385 5.46926H20ZM15.3121 6.25058C14.4504 6.25058 13.7494 5.54958 13.7494 4.68793C13.7494 3.82629 14.4504 3.12529 15.3121 3.12529C16.1737 3.12529 16.8747 3.82629 16.8747 4.68793C16.8747 5.54958 16.1737 6.25058 15.3121 6.25058Z" fill="#5D5D5D"/>
</svg>
