<svg width="24" height="24" viewBox="0 0 24 24" fill="none" xmlns="http://www.w3.org/2000/svg">
<path d="M16.2429 15.4367C15.021 16.3743 13.5413 16.9152 12.0029 16.9867C10.2051 16.881 8.49433 16.177 7.14286 14.9867C6.03275 14.1033 5.02633 13.0968 4.14286 11.9867C5.02903 10.879 6.03516 9.87291 7.14286 8.98674C7.64821 8.61059 8.1833 8.27615 8.74286 7.98674L7.28286 6.47674C6.79849 6.77508 6.3372 7.10935 5.90286 7.47674C4.51122 8.58928 3.26183 9.8689 2.18286 11.2867C2.04853 11.4944 1.98535 11.7401 2.00286 11.9867C2.00214 12.2388 2.08281 12.4843 2.23286 12.6867C3.29336 14.119 4.52594 15.4154 5.90286 16.5467C7.60337 18.0239 9.75276 18.8836 12.0029 18.9867C14.0713 18.9065 16.0592 18.1632 17.6729 16.8667L16.2429 15.4367ZM21.8229 11.2867C20.7504 9.84854 19.5005 8.55161 18.1029 7.42674C15.0029 4.98674 12.0029 4.38674 8.93286 5.62674L10.5129 7.20674C10.9963 7.06176 11.4982 6.98766 12.0029 6.98674C13.8006 7.09246 15.5114 7.79647 16.8629 8.98674C17.9705 9.87297 18.9766 10.8791 19.8629 11.9867C19.1925 12.8236 18.4568 13.6061 17.6629 14.3267L19.0829 15.7467C20.0991 14.8112 21.0264 13.7835 21.8529 12.6767C22.0042 12.4787 22.0851 12.2359 22.0829 11.9867C22.0728 11.7317 21.9818 11.4865 21.8229 11.2867Z" fill="#909090"/>
<path d="M10.2797 9.55078L14 13.2711C13.7855 13.6176 13.4954 13.911 13.1514 14.1295C12.8075 14.348 12.4186 14.4858 12.0138 14.5328C11.609 14.5797 11.1989 14.5345 10.814 14.4006C10.4292 14.2666 10.0797 14.0474 9.79152 13.7593C9.50339 13.4711 9.28415 13.1216 9.15019 12.7367C9.01624 12.3519 8.97105 11.9418 9.018 11.537C9.06495 11.1322 9.20282 10.7433 9.4213 10.3994C9.63979 10.0554 9.93322 9.76531 10.2797 9.55078Z" fill="#909090"/>
<path d="M3.25158 1.99989L2 3.25146L19.6565 20.9079L20.908 19.6563L3.25158 1.99989Z" fill="#909090"/>
</svg>
