<svg width="35" height="36" viewBox="0 0 35 36" fill="none" xmlns="http://www.w3.org/2000/svg">
<path d="M30 21.3686L30.2201 25.8041C30.2352 26.1942 30.1177 26.5243 29.8677 26.7945C29.6177 27.0646 29.2976 27.2072 28.9075 27.2222C25.9373 27.4509 23.1104 27.0677 20.4267 26.0725C17.743 25.0774 15.4051 23.6578 13.413 21.8139C11.4208 19.97 9.82942 17.7525 8.63866 15.1613C7.44791 12.5702 6.84353 9.77731 6.82553 6.78274C6.81046 6.39263 6.92794 6.06252 7.17796 5.79241C7.42799 5.52229 7.74805 5.3797 8.13816 5.36463L12.5775 5.24199C12.9351 5.22818 13.2441 5.32612 13.5045 5.53582C13.7649 5.74553 13.9261 6.02011 13.9881 6.35956L14.8629 11.307C14.9042 11.5333 14.8961 11.7453 14.8386 11.9428C14.7811 12.1404 14.6742 12.3236 14.518 12.4924L11.8458 15.3793C12.2998 16.1757 12.8098 16.9455 13.3757 17.6887C13.9416 18.432 14.5791 19.1317 15.2881 19.7881C15.9972 20.4444 16.7441 21.026 17.5287 21.5329C18.3134 22.0397 19.1203 22.4888 19.9493 22.88L22.6214 19.9931C22.7777 19.8243 22.9521 19.7036 23.1446 19.6311C23.3372 19.5585 23.5479 19.5341 23.7767 19.5578L28.7769 20.0484C29.1201 20.084 29.4063 20.2235 29.6355 20.467C29.8646 20.7104 29.9861 21.011 30 21.3686ZM22.7252 23.9448C23.4492 24.1448 24.1915 24.2911 24.952 24.3838C25.7126 24.4765 26.5251 24.5469 27.3898 24.5949L27.3144 22.6444L24.1785 22.3748L22.7252 23.9448ZM10.6169 12.6431L12.0233 11.1237L11.5127 8.01793L9.60901 8.04263C9.6923 8.93473 9.81341 9.75213 9.97232 10.4948C10.1312 11.2375 10.3461 11.9536 10.6169 12.6431Z" fill="#EF4444"/>
</svg>
