<svg width="44" height="44" viewBox="0 0 44 44" fill="none" xmlns="http://www.w3.org/2000/svg">
<rect x="0.5" y="0.5" width="43" height="43" rx="9.5" fill="url(#paint0_linear_1706_20660)"/>
<rect x="0.5" y="0.5" width="43" height="43" rx="9.5" stroke="url(#paint1_linear_1706_20660)"/>
<g clip-path="url(#clip0_1706_20660)">
<path d="M24.6303 25.9994C24.2647 26.365 23.6699 26.365 23.3043 25.9994L18.0006 20.6956C17.635 20.33 17.635 19.7352 18.0006 19.3696L19.9895 17.3807L14.6857 12.077L11.3709 15.3918C9.54304 17.2196 9.54304 20.1937 11.3709 22.0215L21.9784 32.6291C23.8062 34.4569 26.7803 34.457 28.6082 32.6291L31.923 29.3143L26.6193 24.0104L24.6303 25.9994ZM27.2822 31.3032C26.1855 32.3999 24.4011 32.3999 23.3044 31.3032L12.6968 20.6956C11.6001 19.5989 11.6001 17.8145 12.6968 16.7178L14.6857 14.7289L17.3376 17.3807L16.6746 18.0437C15.5779 19.1404 15.5779 20.9248 16.6746 22.0215L21.9783 27.3253C23.075 28.4221 24.8595 28.4221 25.9562 27.3253L26.6192 26.6624L29.2711 29.3143L27.2822 31.3032ZM34 16.5631V14.6879H32.0062C31.9182 14.3486 31.7828 14.0235 31.604 13.722L33.0153 12.3106L31.6894 10.9847L30.278 12.396C29.9766 12.2172 29.6514 12.0818 29.3121 11.9939V10H27.4369V11.9939C27.0976 12.0818 26.7724 12.2172 26.471 12.396L25.0596 10.9847L23.7337 12.3106L25.145 13.722C24.9662 14.0234 24.8308 14.3486 24.7429 14.6879H22.749V16.5631H24.7429C24.8308 16.9024 24.9662 17.2276 25.145 17.5291L23.7337 18.9404L25.0596 20.2663L26.471 18.855C26.7724 19.0338 27.0976 19.1692 27.4369 19.2572V21.251H29.3121V19.2572C29.6514 19.1692 29.9766 19.0338 30.278 18.855L31.6894 20.2663L33.0153 18.9404L31.604 17.5291C31.7828 17.2276 31.9182 16.9024 32.0062 16.5631H34ZM28.3745 17.5007C27.3405 17.5007 26.4993 16.6595 26.4993 15.6255C26.4993 14.5915 27.3405 13.7503 28.3745 13.7503C29.4084 13.7503 30.2496 14.5915 30.2496 15.6255C30.2496 16.6595 29.4084 17.5007 28.3745 17.5007Z" fill="white"/>
<path d="M24.6303 25.9994C24.2647 26.365 23.6699 26.365 23.3043 25.9994L18.0006 20.6956C17.635 20.33 17.635 19.7352 18.0006 19.3696L19.9895 17.3807L14.6857 12.077L11.3709 15.3918C9.54304 17.2196 9.54304 20.1937 11.3709 22.0215L21.9784 32.6291C23.8062 34.4569 26.7803 34.457 28.6082 32.6291L31.923 29.3143L26.6193 24.0104L24.6303 25.9994ZM27.2822 31.3032C26.1855 32.3999 24.4011 32.3999 23.3044 31.3032L12.6968 20.6956C11.6001 19.5989 11.6001 17.8145 12.6968 16.7178L14.6857 14.7289L17.3376 17.3807L16.6746 18.0437C15.5779 19.1404 15.5779 20.9248 16.6746 22.0215L21.9783 27.3253C23.075 28.4221 24.8595 28.4221 25.9562 27.3253L26.6192 26.6624L29.2711 29.3143L27.2822 31.3032ZM34 16.5631V14.6879H32.0062C31.9182 14.3486 31.7828 14.0235 31.604 13.722L33.0153 12.3106L31.6894 10.9847L30.278 12.396C29.9766 12.2172 29.6514 12.0818 29.3121 11.9939V10H27.4369V11.9939C27.0976 12.0818 26.7724 12.2172 26.471 12.396L25.0596 10.9847L23.7337 12.3106L25.145 13.722C24.9662 14.0234 24.8308 14.3486 24.7429 14.6879H22.749V16.5631H24.7429C24.8308 16.9024 24.9662 17.2276 25.145 17.5291L23.7337 18.9404L25.0596 20.2663L26.471 18.855C26.7724 19.0338 27.0976 19.1692 27.4369 19.2572V21.251H29.3121V19.2572C29.6514 19.1692 29.9766 19.0338 30.278 18.855L31.6894 20.2663L33.0153 18.9404L31.604 17.5291C31.7828 17.2276 31.9182 16.9024 32.0062 16.5631H34ZM28.3745 17.5007C27.3405 17.5007 26.4993 16.6595 26.4993 15.6255C26.4993 14.5915 27.3405 13.7503 28.3745 13.7503C29.4084 13.7503 30.2496 14.5915 30.2496 15.6255C30.2496 16.6595 29.4084 17.5007 28.3745 17.5007Z" fill="white"/>
</g>
<defs>
<linearGradient id="paint0_linear_1706_20660" x1="22" y1="0" x2="22" y2="44" gradientUnits="userSpaceOnUse">
<stop stop-color="#1E9EFF"/>
<stop offset="1" stop-color="#006BFF"/>
</linearGradient>
<linearGradient id="paint1_linear_1706_20660" x1="22" y1="0" x2="22" y2="44" gradientUnits="userSpaceOnUse">
<stop stop-color="#006BFF"/>
<stop offset="1" stop-color="#006BFF"/>
</linearGradient>
<clipPath id="clip0_1706_20660">
<rect width="24" height="24" fill="white" transform="translate(10 10)"/>
</clipPath>
</defs>
</svg>
