<svg width="69" height="44" viewBox="0 0 69 44" fill="none" xmlns="http://www.w3.org/2000/svg">
<path d="M14.1768 38.6165C8.18206 38.0054 3.55508 32.8546 3.70058 26.7143C3.84608 20.9524 8.09476 16.2091 13.8276 15.4233C14.6424 15.3069 15.3117 14.6667 15.399 13.8228C16.1556 8.03181 21.1318 3.63763 26.981 3.63763H27.272C31.7826 3.75403 35.8567 6.48948 37.69 10.6509C38.0101 11.3784 38.7376 11.8149 39.4942 11.7567C39.7852 11.7276 40.0762 11.7276 40.3964 11.7276H40.6292C43.5101 11.7858 46.2456 12.9207 48.3699 14.9286C48.7482 15.3069 49.3011 15.4815 49.8249 15.4233C50.2905 15.3942 50.6688 15.3651 51.0471 15.3651H51.2509C54.3646 15.4524 57.2747 16.7329 59.4281 19.0027C60.4757 20.1085 61.2614 21.3598 61.8143 22.7276H65.7138C65.0445 20.3995 63.7932 18.2461 62.0762 16.4419C59.2244 13.4736 55.4122 11.7858 51.3091 11.6694H51.018C50.7852 11.6694 50.5233 11.6694 50.2614 11.6985C47.5842 9.42863 44.2085 8.14821 40.7165 8.06091H40.5128C37.8937 3.25932 32.8593 0.116463 27.3593 6.10352e-05H26.981C19.735 6.10352e-05 13.5075 5.09265 11.9651 12.0477C5.12651 13.5318 0.179417 19.4974 0.00481398 26.627C-0.19889 34.8334 6.08683 41.672 14.1768 42.3122V38.6165Z" fill="#0176D3"/>
<path d="M31.23 40.4788C31.0554 41.4682 30.9099 42.5158 30.7644 43.5343C29.8331 43.7089 28.9892 43.8253 28.2326 43.8835C27.476 43.9417 26.8067 43.9999 26.2538 43.9999C25.0316 43.9999 23.8675 43.8253 22.7617 43.447C21.6559 43.0978 20.6665 42.5158 19.7644 41.7301C18.8622 40.9444 18.222 40.0132 17.8437 38.9074C17.4363 37.8015 17.2617 36.5793 17.2617 35.2698C17.2617 33.8439 17.4945 32.5343 17.9892 31.3121C18.4548 30.0899 19.1533 29.0714 20.0554 28.2566C20.9575 27.4126 22.0051 26.8015 23.2273 26.3941C24.4496 25.9867 25.73 25.783 27.0686 25.783C28.3781 25.783 29.8331 25.9576 31.3755 26.2486C31.4046 27.0052 31.4337 27.5582 31.4337 27.8783L31.521 29.246C30.5898 28.9841 29.8331 28.8095 29.222 28.7222C28.6109 28.6349 28.0289 28.5767 27.476 28.5767C26.603 28.5767 25.7591 28.7222 24.9734 28.9841C24.1876 29.2751 23.4601 29.7116 22.849 30.3227C22.2379 30.9338 21.7723 31.6613 21.4522 32.5343C21.1321 33.4074 20.9575 34.2804 20.9575 35.2407C20.9575 36.3465 21.1612 37.365 21.5686 38.238C21.976 39.1111 22.6162 39.8386 23.5183 40.3915C24.4204 40.9444 25.5263 41.2063 26.8358 41.2063C28.058 41.2354 29.5421 40.9735 31.23 40.4788Z" fill="#0176D3"/>
<path d="M33.7891 43.6788C34.0219 41.118 34.2256 38.1788 34.342 34.8614C34.4584 31.5439 34.5166 28.6047 34.5166 26.1021C35.4769 26.1021 36.2917 26.1312 36.961 26.1312C37.6594 26.1312 38.3578 26.1312 39.0272 26.1021C39.6965 26.073 40.424 26.073 41.1806 26.073C42.1118 26.073 42.9557 26.1312 43.7123 26.2476C44.469 26.364 45.1092 26.6259 45.6912 27.0042C46.2732 27.4116 46.6806 27.9063 46.9716 28.4592C47.2626 29.0413 47.379 29.7106 47.379 30.4672C47.379 30.9619 47.3208 31.3984 47.2044 31.8349C47.088 32.2714 46.9425 32.6788 46.7388 33.0571C46.5351 33.4354 46.2732 33.7846 46.0113 34.0465C45.7203 34.3375 45.4293 34.5703 45.1674 34.745C44.8764 34.9196 44.5854 35.0651 44.2071 35.1815C43.8578 35.2979 43.3631 35.4434 42.7811 35.618L43.5959 37.3349C43.8578 37.8878 44.3526 38.8481 45.1092 40.245L46.3314 42.5148C46.3896 42.6312 46.5933 43.0386 46.9134 43.6788C45.924 43.6497 45.2547 43.6497 44.9637 43.6497C44.5854 43.6497 43.8869 43.6497 42.8975 43.6788L41.5589 40.245C41.3261 39.7211 41.0351 39.11 40.715 38.3825L39.2309 35.2397C39.0854 34.9487 38.8817 34.5122 38.6198 33.9301C39.1727 34.0465 39.6674 34.0756 40.1039 34.0756C40.8023 34.0756 41.4425 33.9592 42.0245 33.7264C42.6065 33.4936 43.043 33.1153 43.3631 32.6206C43.6832 32.1259 43.8287 31.573 43.8287 30.9619C43.8287 30.6127 43.7705 30.2635 43.625 29.9725C43.4795 29.6524 43.2758 29.3905 42.9557 29.1868C42.6356 28.9831 42.2573 28.8375 41.8208 28.7793C41.3843 28.7211 40.9478 28.692 40.5113 28.692C40.2785 28.692 39.9293 28.692 39.5219 28.692C39.1145 28.692 38.5907 28.692 37.9795 28.692L37.7758 33.9883L37.543 43.6497L35.6515 43.6206C35.3314 43.6497 34.7203 43.6788 33.7891 43.6788Z" fill="#0176D3"/>
<path d="M49.2461 43.6788L49.5662 40.7688L50.381 30.5545L50.672 26.1021C51.836 26.1021 52.68 26.1312 53.2038 26.1312C53.6403 26.1312 54.426 26.1312 55.5609 26.1021C55.7064 26.8005 55.7937 27.2952 55.8519 27.5862C55.9101 27.8772 56.0265 28.3428 56.2302 28.9831C56.4339 29.6233 56.6667 30.409 56.9577 31.3111C57.3942 32.7079 57.7725 34.0756 58.1218 35.4434L59.053 39.1391L60.6826 34.3957L63.0397 28.2555C63.127 28.0518 63.2143 27.819 63.3017 27.528C63.389 27.2661 63.5345 26.7714 63.7382 26.073C64.6985 26.073 65.5715 26.1021 66.3281 26.1021C66.8228 26.1021 67.6376 26.1021 68.7434 26.073C68.627 28.5465 68.5397 31.282 68.4815 34.2793C68.4233 37.2767 68.3942 39.5174 68.3942 40.9725C68.3942 41.7 68.3942 42.573 68.4233 43.6497C67.6085 43.6497 67.0847 43.6206 66.7646 43.6206C66.3572 43.6206 65.7752 43.6206 65.0768 43.6497C65.135 42.7767 65.1641 42.0492 65.1641 41.4963L65.3678 33.8428C65.3969 32.7661 65.3969 31.6894 65.3969 30.6418V29.5942L60.9445 42.1365L60.4207 43.6788C59.635 43.6788 59.0821 43.6497 58.7911 43.6497C58.4128 43.6497 57.8599 43.6497 57.0741 43.6788L54.9789 35.7344C54.8916 35.4434 54.7461 34.8614 54.4551 33.9592L53.6985 31.3402C53.6403 31.1074 53.5821 30.9037 53.5239 30.7291C53.4948 30.5545 53.4075 30.2053 53.2911 29.6524L53.1165 31.3111C53.0874 31.8349 53.0292 32.7079 52.9419 33.9301L52.4763 41.9328C52.4472 42.3111 52.4472 42.9222 52.4472 43.6788L50.8757 43.6497C50.5847 43.6497 50.0318 43.6788 49.2461 43.6788Z" fill="#0176D3"/>
</svg>
