<svg width="20" height="20" viewBox="0 0 20 20" fill="none" xmlns="http://www.w3.org/2000/svg">
<g clip-path="url(#clip0_1818_40432)">
<path d="M18.4716 15.343L20 12.9372L17.3526 14.027C16.4606 14.3942 15.5231 14.5804 14.566 14.5804C10.5502 14.5804 7.28302 11.3387 7.28302 7.35424C7.28302 5.21128 8.26464 3.18366 9.97624 1.79141L12.1785 0L9.33729 0.191719C4.10835 0.544536 0 4.82318 0 10.064C0 15.5553 4.47888 20 10.0142 20C13.4574 20 16.6191 18.2591 18.4716 15.343ZM10.0142 18.1935C5.49632 18.1935 1.82076 14.5466 1.82076 10.064C1.82076 6.73929 3.88768 3.84056 6.84845 2.60733C5.95073 4.02072 5.46227 5.65772 5.46227 7.35424C5.46227 12.3349 9.54622 16.3869 14.566 16.3869C14.7671 16.3869 14.9674 16.3804 15.1669 16.3673C13.7298 17.5363 11.9245 18.1935 10.0142 18.1935Z" fill="#5D5D5D"/>
</g>
<defs>
<clipPath id="clip0_1818_40432">
<rect width="20" height="20" fill="white"/>
</clipPath>
</defs>
</svg>
