<svg width="45" height="44" viewBox="0 0 45 44" fill="none" xmlns="http://www.w3.org/2000/svg">
<rect x="1" y="0.5" width="43" height="43" rx="9.5" fill="url(#paint0_linear_1706_5460)"/>
<rect x="1" y="0.5" width="43" height="43" rx="9.5" stroke="url(#paint1_linear_1706_5460)"/>
<g clip-path="url(#clip0_1706_5460)">
<path d="M33.7203 22.0632L33.6938 22.0366L27.8115 17.028L27.8062 15.4736L24.3021 15.4856L22.0185 17.7692C21.6605 18.1271 21.0729 18.133 20.7085 17.7822C20.5338 17.6139 20.436 17.3821 20.4337 17.1292C20.4311 16.8637 20.536 16.6052 20.7213 16.4199L22.5835 14.4332C24.0811 12.8349 26.1965 11.918 28.387 11.918H34.4993V10.0467H28.387C26.2061 10.0467 24.0857 10.783 22.3763 12.1023C20.649 10.7416 18.5224 10 16.3031 10H10.5469V11.8713H16.3031C18.0022 11.8713 19.6342 12.4081 20.9892 13.3981L19.3863 15.1086C18.8553 15.6463 18.5552 16.3882 18.5625 17.1472C18.5698 17.9065 18.871 18.6109 19.4108 19.1305C19.9429 19.6427 20.6452 19.9209 21.3821 19.9144C22.1223 19.9079 22.8182 19.616 23.3415 19.0925L25.0798 17.3543L25.3074 17.3533L32.4181 23.4081C32.707 23.7196 32.6999 24.2081 32.397 24.5111C32.2482 24.66 32.0486 24.7419 31.8347 24.7419C31.6209 24.7419 31.4213 24.66 31.2724 24.5111L31.0803 24.3191L29.7572 25.6422L29.9491 25.8343C30.0377 25.9228 30.1324 26.005 30.2324 26.0804L30.2137 26.0988C30.5239 26.4091 30.5239 26.9135 30.2137 27.2237C29.9037 27.5337 29.399 27.5337 29.089 27.2237L28.7715 26.9086L27.4484 28.2317L27.6636 28.4468C27.8247 28.6087 27.9219 28.8389 27.9302 29.0787C27.9346 29.2097 27.9146 29.4568 27.7293 29.6418C27.4365 29.9347 26.9295 29.9043 26.5995 29.5744L26.5733 29.548L26.4047 29.4043L25.136 30.778C25.2922 30.934 25.3795 31.1383 25.3819 31.3533C25.3843 31.5613 25.3056 31.7559 25.1603 31.9011C24.8502 32.2113 24.3393 32.2051 24.0192 31.8848L23.8861 31.7528C24.2685 30.7785 24.0668 29.6262 23.2808 28.84C22.9288 28.488 22.5 28.2417 22.0353 28.1182C22.1506 27.3143 21.8998 26.4677 21.2827 25.8506C20.8204 25.3882 20.229 25.132 19.6234 25.081C19.5776 24.4789 19.3204 23.8882 18.8502 23.418C18.3851 22.9529 17.7894 22.6966 17.18 22.6475C17.1312 22.0382 16.8749 21.4425 16.4097 20.9774C15.3721 19.9401 13.6853 19.9377 12.6449 20.971L11.3376 22.2333L11.3258 22.2449C10.8235 22.7471 10.5469 23.4167 10.5469 24.1302C10.5469 24.844 10.8235 25.5136 11.3258 26.0159C11.7233 26.4134 12.2162 26.6584 12.7315 26.752C12.7073 27.4648 12.966 28.1855 13.5091 28.7284C13.9933 29.2127 14.6397 29.4775 15.3342 29.4775C15.3473 29.4775 15.3605 29.4773 15.3739 29.4771C15.4495 30.0332 15.6995 30.5688 16.1249 30.9941C16.6423 31.5116 17.3223 31.7699 18.0045 31.7698C18.0619 31.7698 18.1192 31.7674 18.1765 31.7637C18.2755 32.3106 18.5394 32.8141 18.9329 33.2066C19.4619 33.7356 20.1566 34 20.8515 34C21.5301 33.9998 22.2083 33.747 22.7324 33.2425C23.234 33.7286 23.9053 34.0003 24.6039 33.9998C25.2859 33.9998 25.9664 33.7416 26.4836 33.2242C26.8975 32.8104 27.1558 32.2836 27.2307 31.7125C27.8967 31.7114 28.5546 31.4631 29.0526 30.9648C29.4902 30.5274 29.7479 29.9528 29.7944 29.3228C30.4288 29.2889 31.0534 29.0303 31.537 28.5467C32.0799 28.0038 32.3392 27.2833 32.3152 26.5707C32.8478 26.4744 33.3381 26.2174 33.7203 25.8342C34.76 24.7945 34.76 23.1028 33.7203 22.0631V22.0632ZM12.4182 24.1302C12.4182 23.9188 12.4984 23.7212 12.6442 23.5727L13.9501 22.3122L13.9618 22.3007C14.1106 22.1516 14.3104 22.0697 14.5241 22.0697C14.738 22.0697 14.9378 22.1516 15.0866 22.3007C15.2353 22.4495 15.3173 22.6491 15.3173 22.863C15.3173 23.0406 15.26 23.2083 15.1554 23.3455C15.1309 23.368 15.1065 23.3907 15.0826 23.4143L14.1229 24.3553L13.7854 24.6812L13.7737 24.6927C13.6249 24.8416 13.4251 24.9236 13.2112 24.9236C12.9975 24.9236 12.7978 24.8416 12.6489 24.6927C12.5001 24.5439 12.4182 24.3441 12.4182 24.1302ZM14.8323 27.4053C14.523 27.096 14.5223 26.5934 14.8297 26.2832L15.4288 25.6956L16.398 24.76L16.4097 24.7486C16.4348 24.7235 16.4586 24.6977 16.4826 24.6719C16.794 24.4338 17.2423 24.4563 17.527 24.7411C17.835 25.0493 17.8369 25.4951 17.5318 25.8029L15.9351 27.3683C15.6077 27.6704 15.1146 27.6876 14.8323 27.4053ZM17.4479 29.671C17.1383 29.3612 17.1442 28.8514 17.4608 28.5336L18.8315 27.1771L18.835 27.1736C18.9836 27.0248 19.1834 26.9429 19.3973 26.9429C19.611 26.9429 19.8107 27.0248 19.9596 27.1736C20.2692 27.4833 20.2696 27.9868 19.961 28.297L18.5902 29.6536L18.5867 29.6569C18.269 29.9748 17.7581 29.981 17.448 29.671H17.4479ZM20.256 31.8833C20.0948 31.722 20.0047 31.5057 20.0023 31.2743C19.9999 31.0476 20.0834 30.8381 20.2373 30.6843L20.7988 30.1229C20.9485 29.9729 21.143 29.8988 21.3419 29.8988C21.5592 29.8988 21.782 29.9874 21.9577 30.163C22.286 30.4913 22.286 31.0256 21.9577 31.354L21.442 31.8882C21.1133 32.2116 20.5827 32.2099 20.256 31.8833Z" fill="white"/>
</g>
<defs>
<linearGradient id="paint0_linear_1706_5460" x1="22.5" y1="0" x2="22.5" y2="44" gradientUnits="userSpaceOnUse">
<stop stop-color="#1E9EFF"/>
<stop offset="1" stop-color="#006BFF"/>
</linearGradient>
<linearGradient id="paint1_linear_1706_5460" x1="22.5" y1="0" x2="22.5" y2="44" gradientUnits="userSpaceOnUse">
<stop stop-color="#006BFF"/>
<stop offset="1" stop-color="#006BFF"/>
</linearGradient>
<clipPath id="clip0_1706_5460">
<rect width="24" height="24" fill="white" transform="translate(10.5 10)"/>
</clipPath>
</defs>
</svg>
