<svg width="14" height="16" viewBox="0 0 14 16" fill="none" xmlns="http://www.w3.org/2000/svg">
<path d="M7.625 11.625H6.375V6.625H7.625V11.625ZM5.125 6.625H3.875V11.625H5.125V6.625ZM10.125 6.625H8.875V11.625H10.125V6.625ZM13.875 2.5V3.75H12.625V14.125C12.625 15.1589 11.7839 16 10.75 16H3.25C2.21613 16 1.375 15.1589 1.375 14.125V3.75H0.125V2.5H3.875V1.875C3.875 0.841125 4.71613 0 5.75 0H8.25C9.28387 0 10.125 0.841125 10.125 1.875V2.5H13.875ZM5.125 2.5H8.875V1.875C8.875 1.53038 8.59463 1.25 8.25 1.25H5.75C5.40538 1.25 5.125 1.53038 5.125 1.875V2.5ZM11.375 3.75H2.625V14.125C2.625 14.4696 2.90538 14.75 3.25 14.75H10.75C11.0946 14.75 11.375 14.4696 11.375 14.125V3.75Z" fill="#6D6D6D"/>
</svg>
