<svg width="80" height="81" viewBox="0 0 80 81" fill="none" xmlns="http://www.w3.org/2000/svg">
<g clip-path="url(#clip0_2180_44733)">
<path d="M67.9682 13.136H57.9024C56.8588 13.1407 55.8512 12.7549 55.0775 12.0545C54.3039 11.3541 53.8201 10.3897 53.7213 9.35073C53.4677 6.91276 52.3163 4.65632 50.4909 3.02042C48.6656 1.38452 46.297 0.486172 43.8459 0.500161H36.2163C33.7665 0.4877 31.3997 1.38679 29.576 3.0226C27.7523 4.65841 26.6022 6.91399 26.3493 9.35073C26.249 10.3891 25.7649 11.3526 24.9915 12.0527C24.2182 12.7529 23.2114 13.1392 22.1682 13.136H12.0359C11.1644 13.136 10.3287 13.4822 9.71243 14.0984C9.0962 14.7147 8.75 15.5504 8.75 16.4219C8.74933 17.2945 9.09501 18.1316 9.71112 18.7494C10.3272 19.3673 11.1634 19.7153 12.0359 19.7171H67.9673C68.8399 19.7153 69.676 19.3673 70.2921 18.7494C70.9083 18.1316 71.2539 17.2945 71.2533 16.4219C71.2533 15.5504 70.9071 14.7147 70.2908 14.0984C69.6746 13.4822 68.8397 13.136 67.9682 13.136ZM45.9545 13.136H34.2466C34.0164 13.1362 33.789 13.0844 33.5816 12.9843C33.3742 12.8843 33.1922 12.7386 33.049 12.5582C32.9059 12.3778 32.8054 12.1674 32.7551 11.9427C32.7049 11.718 32.706 11.4848 32.7586 11.2606C32.8445 10.8564 32.9136 10.4522 32.9649 10.0396C33.0453 9.22553 33.4268 8.47086 34.0347 7.92345C34.6425 7.37605 35.4329 7.07539 36.2509 7.0804H43.9503C44.7683 7.07539 45.5587 7.37605 46.1665 7.92345C46.7743 8.47086 47.1558 9.22553 47.2362 10.0396C47.2876 10.4522 47.3566 10.8564 47.4425 11.2606C47.4951 11.4848 47.4963 11.718 47.446 11.9427C47.3957 12.1674 47.2953 12.3778 47.1521 12.5582C47.009 12.7386 46.8269 12.8843 46.6195 12.9843C46.4121 13.0844 46.1848 13.1362 45.9545 13.136Z" fill="url(#paint0_linear_2180_44733)"/>
<path d="M63.7547 24.5689H16.3825C15.9419 24.567 15.5054 24.6536 15.0989 24.8235C14.6925 24.9935 14.3243 25.2434 14.0162 25.5584C13.7097 25.8762 13.4702 26.2525 13.3121 26.6648C13.154 27.0771 13.0804 27.517 13.0957 27.9584L14.412 67.8373C14.6705 74.9085 20.4853 80.5085 27.5658 80.5001H52.5714C59.6595 80.5085 65.4835 74.8916 65.7337 67.8036L67.049 27.9584C67.0625 27.5173 66.988 27.0779 66.83 26.6659C66.672 26.2538 66.4336 25.8773 66.1286 25.5584C65.8184 25.2439 65.4485 24.9945 65.0408 24.8246C64.6331 24.6547 64.1964 24.5678 63.7547 24.5689ZM35.4277 64.7754C35.4277 65.647 35.0815 66.4829 34.4652 67.0992C33.8489 67.7155 33.013 68.0617 32.1414 68.0617C31.2698 68.0617 30.4339 67.7155 29.8176 67.0992C29.2013 66.4829 28.855 65.647 28.855 64.7754V36.7416C28.855 35.87 29.2013 35.0341 29.8176 34.4178C30.4339 33.8015 31.2698 33.4552 32.1414 33.4552C33.013 33.4552 33.8489 33.8015 34.4652 34.4178C35.0815 35.0341 35.4277 35.87 35.4277 36.7416V64.7754ZM51.2897 64.7754C51.2895 65.2075 51.2041 65.6354 51.0384 66.0345C50.8726 66.4336 50.6298 66.7962 50.3238 67.1013C50.0179 67.4065 49.6547 67.6484 49.2552 67.8131C48.8557 67.9778 48.4276 68.0622 47.9954 68.0613C47.1239 68.0613 46.2881 67.7151 45.6719 67.0989C45.0557 66.4826 44.7095 65.6469 44.7095 64.7754V36.7416C44.7094 36.31 44.7943 35.8826 44.9594 35.4838C45.1244 35.0851 45.3665 34.7227 45.6716 34.4175C45.9767 34.1123 46.339 33.8702 46.7377 33.705C47.1365 33.5398 47.5638 33.4548 47.9954 33.4548C48.4276 33.4539 48.8557 33.5383 49.2552 33.703C49.6547 33.8677 50.0179 34.1096 50.3238 34.4147C50.6298 34.7199 50.8726 35.0825 51.0384 35.4816C51.2041 35.8807 51.2895 36.3086 51.2897 36.7407V64.7754Z" fill="url(#paint1_linear_2180_44733)"/>
</g>
<defs>
<linearGradient id="paint0_linear_2180_44733" x1="9.84054" y1="-16.6292" x2="87.3288" y2="68.2894" gradientUnits="userSpaceOnUse">
<stop stop-color="#FF6060"/>
<stop offset="1" stop-color="#D80909"/>
</linearGradient>
<linearGradient id="paint1_linear_2180_44733" x1="-6.23663" y1="-1.95755" x2="71.2517" y2="82.9619" gradientUnits="userSpaceOnUse">
<stop stop-color="#FF6060"/>
<stop offset="1" stop-color="#D80909"/>
</linearGradient>
<clipPath id="clip0_2180_44733">
<rect width="80" height="80" fill="white" transform="translate(0 0.5)"/>
</clipPath>
</defs>
</svg>
