<svg width="16" height="12" viewBox="0 0 16 12" fill="none" xmlns="http://www.w3.org/2000/svg">
<path d="M7.99956 5.32389L0.639557 1.03557C0.791906 0.768543 1.01198 0.54642 1.27759 0.391608C1.54319 0.236795 1.84493 0.154771 2.15236 0.153809H13.8445C14.1569 0.154893 14.4634 0.239693 14.7319 0.399384C15.0004 0.559074 15.2213 0.787818 15.3714 1.06181L7.99956 5.32389ZM8.29108 6.50597C8.20185 6.55755 8.10059 6.58463 7.99753 6.58449C7.89447 6.58435 7.79328 6.55699 7.7042 6.50517L0.398438 2.24853V10.0922C0.399557 11.0604 1.18404 11.845 2.15236 11.846H13.8445C14.8128 11.845 15.5973 11.0604 15.5984 10.0922V2.28101L8.29108 6.50597Z" fill="#067AFF"/>
</svg>
