<svg width="76" height="70" viewBox="0 0 76 70" fill="none" xmlns="http://www.w3.org/2000/svg">
<path d="M73.6578 49.5175L49.492 6.85974C47.1236 2.57946 42.7815 0 37.9657 0C33.142 0 28.7999 2.57946 26.4315 6.85974L2.26657 49.5981C-0.101851 53.8703 -0.101851 59.0293 2.34551 63.3015C4.71393 67.5012 8.97708 70 13.7929 70H62.0533C66.8691 70 71.2112 67.4205 73.6586 63.1403C76.1138 58.868 76.113 53.7897 73.6578 49.5175ZM37.9578 59.1502C35.5815 59.1502 33.6394 57.1672 33.6394 54.7409C33.6394 52.3146 35.5815 50.3397 37.9578 50.3397C40.3341 50.3397 42.2762 52.3146 42.1815 54.8296C42.2762 57.0785 40.2473 59.1502 37.9578 59.1502ZM42.0078 30.7358C41.8341 34.1536 41.6604 37.4747 41.392 40.8924C41.3052 41.9726 41.3052 42.9641 41.3052 44.0442C41.2183 45.8418 39.8052 47.1879 38.0447 47.1879C36.2841 47.1879 34.9657 45.9304 34.7841 44.1329C34.4368 39.0062 34.1684 33.7909 33.9078 28.4869C33.821 27.052 33.7341 25.6978 33.6394 24.263C33.6394 22.014 34.8789 20.0311 36.9868 19.4991C39.0157 18.959 41.1315 20.0311 42.0078 22.014C42.2762 22.7315 42.3631 23.4489 42.3631 24.1743C42.2762 26.3266 42.0947 28.5755 42.0078 30.7358Z" fill="url(#paint0_linear_2180_24075)"/>
<defs>
<linearGradient id="paint0_linear_2180_24075" x1="-8.13631" y1="-3.04457" x2="66.1619" y2="76.7001" gradientUnits="userSpaceOnUse">
<stop stop-color="#FF6060"/>
<stop offset="1" stop-color="#D80909"/>
</linearGradient>
</defs>
</svg>
