<svg width="23" height="22" viewBox="0 0 23 22" fill="none" xmlns="http://www.w3.org/2000/svg">
<path d="M12.1094 0.000976562H10.3906V3.43848H12.1094V0.000976562ZM19.7574 3.70892L18.5421 2.49359L16.1114 4.92429L17.3267 6.13962L19.7574 3.70892ZM16.7622 8.2065L16.1628 7.60713C15.4392 6.88345 14.477 6.48487 13.4535 6.48487L6.75843 6.48771L4.89814 8.20646H0.25V18.519H6.61784L9.34468 21.2458C9.84729 21.7484 10.5075 21.9997 11.1677 21.9997C11.8279 21.9997 12.4881 21.7484 12.9907 21.2458L15.7175 18.519H22.25V8.20646H16.7622V8.2065ZM15.4214 16.3845L11.7754 20.0305C11.4403 20.3656 10.8951 20.3655 10.56 20.0305L7.32975 16.8003H1.96875V9.92525H5.57061L7.43089 8.2065H10.1449L5.0576 13.2937L5.66527 13.9014C7.34277 15.579 10.0625 15.5808 11.7419 13.9014L12.9478 12.6955L15.4214 15.1691C15.7572 15.505 15.7573 16.0486 15.4214 16.3845ZM20.5312 16.8003H17.1815C17.5819 15.8745 17.418 14.7351 16.6367 13.9538L12.9478 10.2649L10.5266 12.6861C9.71877 13.4939 8.53055 13.6401 7.59147 13.1905L11.9595 8.82246C12.3586 8.42341 12.8891 8.20362 13.4535 8.20362C14.0178 8.20362 14.5484 8.42341 14.9475 8.82246L16.0503 9.92521H20.5312V16.8003ZM6.38864 4.92429L3.95795 2.49359L2.74262 3.70892L5.17327 6.13962L6.38864 4.92429Z" fill="#10B969"/>
</svg>
