<svg width="45" height="44" viewBox="0 0 45 44" fill="none" xmlns="http://www.w3.org/2000/svg">
<path d="M30.4253 12.7607L43.1834 18.5663C45.974 14.754 44.3201 9.88696 39.482 7.68258L22.6073 0L5.7253 7.68258C0.887289 9.87968 -0.766672 14.754 2.02393 18.5663L14.578 12.8553L22.6 9.21765L30.4181 12.7607H30.4253Z" fill="#F3B942"/>
<path d="M30.4253 25.4794L43.1834 31.285C45.974 27.4729 44.3201 22.6057 39.482 20.4014L22.6073 12.7188L5.7253 20.4014C0.887289 22.5985 -0.766672 27.4729 2.02393 31.285L14.578 25.574L22.6 21.9364L30.4181 25.4794H30.4253Z" fill="#4EADDD"/>
<path d="M30.4251 38.1939L43.1832 43.9995C45.9738 40.1872 44.3199 35.3202 39.4818 33.1158L22.6071 25.4332L5.73232 33.1158C0.887029 35.3202 -0.766927 40.1872 2.02367 43.9995L14.5777 38.2885L22.5998 34.6509L30.4179 38.1939H30.4251Z" fill="#EB484B"/>
</svg>
