<svg width="44" height="34" viewBox="0 0 44 34" fill="none" xmlns="http://www.w3.org/2000/svg">
<path d="M2.99999 33.504H10V16.504L5.4163 8.5L0 9.00402V30.504C0 32.1615 1.34252 33.504 2.99999 33.504Z" fill="#0085F7"/>
<path d="M34 33.504H41C42.6575 33.504 44 32.1615 44 30.504V9.00402L38.5916 8.5L34.0001 16.504V33.504H34Z" fill="#00A94B"/>
<path d="M33.9986 3.50403L29.8867 11.3504L33.9986 16.5041L43.9986 9.00403V5.00407C43.9986 1.29655 39.7661 -0.820948 36.7986 1.40406L33.9986 3.50403Z" fill="#FFBC00"/>
<path fill-rule="evenodd" clip-rule="evenodd" d="M10.0002 16.5041L6.08203 8.22741L10.0002 3.50403L22.0001 12.504L34.0001 3.50403V16.5041L22.0001 25.504L10.0002 16.5041Z" fill="#FF4131"/>
<path d="M0 5.00407V9.00403L10 16.5041V3.50403L7.20002 1.40406C4.23251 -0.820948 0 1.29655 0 5.00407Z" fill="#E51C19"/>
</svg>
