<svg width="44" height="44" viewBox="0 0 44 44" fill="none" xmlns="http://www.w3.org/2000/svg">
<path d="M15.1708 28.3858C14.3052 27.801 13.7061 26.9471 13.3789 25.8181L15.3879 24.9902C15.5702 25.6849 15.8886 26.2233 16.3431 26.6055C16.7947 26.9876 17.3447 27.1758 17.9874 27.1758C18.6445 27.1758 19.209 26.976 19.6808 26.5765C20.1527 26.1771 20.39 25.6676 20.39 25.051C20.39 24.4199 20.1411 23.9046 19.6431 23.5052C19.1452 23.1058 18.52 22.9059 17.7731 22.9059H16.6124V20.9173H17.6545C18.2971 20.9173 18.8384 20.7436 19.2784 20.3962C19.7184 20.0489 19.9384 19.5742 19.9384 18.9692C19.9384 18.4308 19.7415 18.0023 19.3479 17.681C18.9542 17.3597 18.4563 17.1976 17.8513 17.1976C17.2607 17.1976 16.7918 17.354 16.4444 17.6695C16.097 17.9851 15.8451 18.3729 15.686 18.8303L13.6973 18.0024C13.9607 17.2555 14.4442 16.5955 15.1533 16.0253C15.8626 15.455 16.7686 15.1684 17.8686 15.1684C18.682 15.1684 19.4144 15.3247 20.0629 15.6403C20.7113 15.9558 21.2208 16.3929 21.5884 16.9487C21.9561 17.5074 22.1384 18.1326 22.1384 18.8274C22.1384 19.5366 21.9677 20.1358 21.6261 20.6279C21.2845 21.12 20.8648 21.4963 20.3668 21.7598V21.8785C21.0239 22.1535 21.5595 22.5732 21.9821 23.1377C22.4018 23.7022 22.6131 24.3767 22.6131 25.164C22.6131 25.9514 22.4134 26.6548 22.0139 27.2714C21.6145 27.888 21.0615 28.3743 20.361 28.7274C19.6576 29.0806 18.8673 29.2601 17.9902 29.2601C16.9742 29.2629 16.0364 28.9706 15.1708 28.3858ZM27.5111 18.4163L25.3052 20.0113L24.2024 18.3381L28.1595 15.484H29.6764V28.9474H27.5111V18.4163Z" fill="#0085F7"/>
<path d="M33.5783 33.579H10.4204L7.10547 38.4634L10.4204 44H33.5783L36.317 38.1093L33.5783 33.579Z" fill="#00A94B"/>
<path d="M33.579 0H3.47368C1.55444 0 0 1.55444 0 3.47368V33.579L5.21056 37.2831L10.4211 33.579V10.421H33.579L37.1439 5.21048L33.579 0Z" fill="#0085F7"/>
<path d="M0 33.579V40.5263C0 42.4456 1.55444 44 3.47368 44H10.421V33.579H0Z" fill="#00802E"/>
<path d="M43.9992 10.4211L38.7886 7.0683L33.5781 10.4211V33.579L38.2642 36.025L43.9992 33.579V10.4211Z" fill="#FFBC00"/>
<path d="M43.9992 10.421V3.47368C43.9992 1.55444 42.4447 0 40.5255 0H33.5781V10.421H43.9992Z" fill="#0067D5"/>
<path d="M33.5781 44L43.9992 33.579H33.5781V44Z" fill="#FF4131"/>
</svg>
