<svg width="20" height="20" viewBox="0 0 20 20" fill="none" xmlns="http://www.w3.org/2000/svg">
<path d="M20 9.10982L10 0L0 9.10982L1.02367 10.3463L1.95988 9.49344V17.5434C1.95988 18.898 3.01039 20 4.30168 20H8.67301V11.9753H11.4051V20H15.6984C16.9896 20 18.0402 18.898 18.0402 17.5434V9.49348L18.9764 10.3464L20 9.10982ZM16.4789 17.5434C16.4789 17.995 16.1287 18.3623 15.6984 18.3623H12.9663V10.3376H7.1118V18.3623H4.30164C3.87121 18.3623 3.52105 17.995 3.52105 17.5435V8.07126L10 2.16907L16.4789 8.07126V17.5434Z" fill="#5D5D5D"/>
</svg>
