<svg width="21" height="19" viewBox="0 0 21 19" fill="none" xmlns="http://www.w3.org/2000/svg">
<path d="M18.1562 0.611328H2.84375C1.55125 0.611328 0.5 1.69884 0.5 3.03557V15.9649C0.5 17.3018 1.55125 18.3891 2.84375 18.3891H18.1562C19.4487 18.3891 20.5 17.3018 20.5 15.9649V3.03557C20.5 1.69884 19.4487 0.611328 18.1562 0.611328ZM2.84375 2.22749H18.1562C18.587 2.22749 18.9375 2.59012 18.9375 3.03557V12.5594L14.6797 8.15541L11.8281 11.1049L6.34888 5.43745L2.0625 9.87106V3.03557C2.0625 2.59012 2.41297 2.22749 2.84375 2.22749ZM18.1562 16.7729H2.84375C2.41297 16.7729 2.0625 16.4104 2.0625 15.9649V12.1567L6.34888 7.72309L13.7172 15.3445L14.8219 14.2016L12.933 12.2477L14.6797 10.4411L18.893 14.7988L18.9375 14.7527V15.9648C18.9375 16.4104 18.5871 16.7729 18.1563 16.7729L18.1562 16.7729ZM15.0266 5.06046C15.0266 4.39088 15.5514 3.84834 16.1985 3.84834C16.8458 3.84834 17.3704 4.39088 17.3704 5.06046C17.3704 5.72978 16.8458 6.27258 16.1985 6.27258C15.5514 6.27258 15.0266 5.72978 15.0266 5.06046Z" fill="#6D6D6D"/>
</svg>
