<svg width="15" height="18" viewBox="0 0 15 18" fill="none" xmlns="http://www.w3.org/2000/svg">
<path fill-rule="evenodd" clip-rule="evenodd" d="M2.6875 4.48017C2.6875 3.29195 3.15952 2.1524 3.99971 1.31221C4.8399 0.472016 5.97945 0 7.16767 0C8.35588 0 9.49543 0.472016 10.3356 1.31221C11.1758 2.1524 11.6478 3.29195 11.6478 4.48017C11.6478 5.66838 11.1758 6.80793 10.3356 7.64812C9.49543 8.48832 8.35588 8.96033 7.16767 8.96033C5.97945 8.96033 4.8399 8.48832 3.99971 7.64812C3.15952 6.80793 2.6875 5.66838 2.6875 4.48017ZM7.16767 1.79207C6.81466 1.79207 6.46511 1.8616 6.13897 1.99669C5.81284 2.13178 5.51651 2.32978 5.26689 2.57939C5.01728 2.82901 4.81928 3.12534 4.68419 3.45147C4.5491 3.77761 4.47957 4.12716 4.47957 4.48017C4.47957 4.83317 4.5491 5.18272 4.68419 5.50886C4.81928 5.83499 5.01728 6.13133 5.26689 6.38094C5.51651 6.63055 5.81284 6.82856 6.13897 6.96365C6.46511 7.09874 6.81466 7.16827 7.16767 7.16827C7.88059 7.16827 8.56432 6.88506 9.06844 6.38094C9.57256 5.87682 9.85577 5.19309 9.85577 4.48017C9.85577 3.76724 9.57256 3.08351 9.06844 2.57939C8.56432 2.07528 7.88059 1.79207 7.16767 1.79207Z" fill="#FF4141"/>
<path d="M7.16827 11.7257C5.74241 11.7257 4.37495 12.2921 3.36672 13.3003C2.35849 14.3085 1.79207 15.676 1.79207 17.1019C1.79207 17.3395 1.69766 17.5674 1.52962 17.7355C1.36159 17.9035 1.13368 17.9979 0.896033 17.9979C0.65839 17.9979 0.430481 17.9035 0.262442 17.7355C0.0944034 17.5674 0 17.3395 0 17.1019C0 15.2007 0.755226 13.3774 2.09954 12.0331C3.44385 10.6888 5.26712 9.93359 7.16827 9.93359C7.40591 9.93359 7.63382 10.028 7.80186 10.196C7.9699 10.3641 8.0643 10.592 8.0643 10.8296C8.0643 11.0673 7.9699 11.2952 7.80186 11.4632C7.63382 11.6313 7.40591 11.7257 7.16827 11.7257ZM14.074 13.7803L12.2819 11.9882C12.1129 11.825 11.8866 11.7347 11.6517 11.7367C11.4167 11.7387 11.192 11.833 11.0259 11.9991C10.8597 12.1652 10.7655 12.39 10.7634 12.6249C10.7614 12.8599 10.8517 13.0862 11.0149 13.2552L11.2775 13.5177H8.0643C7.82666 13.5177 7.59875 13.6121 7.43071 13.7802C7.26267 13.9482 7.16827 14.1761 7.16827 14.4138C7.16827 14.6514 7.26267 14.8793 7.43071 15.0474C7.59875 15.2154 7.82666 15.3098 8.0643 15.3098H11.2775L11.0149 15.5723C10.8517 15.7413 10.7614 15.9677 10.7634 16.2026C10.7655 16.4375 10.8597 16.6623 11.0259 16.8284C11.192 16.9945 11.4167 17.0888 11.6517 17.0908C11.8866 17.0929 12.1129 17.0025 12.2819 16.8393L14.074 15.0473C14.242 14.8792 14.3363 14.6514 14.3363 14.4138C14.3363 14.1762 14.242 13.9483 14.074 13.7803Z" fill="#FF4141"/>
</svg>
