<svg width="20" height="20" viewBox="0 0 20 20" fill="none" xmlns="http://www.w3.org/2000/svg">
<g clip-path="url(#clip0_1817_40336)">
<path d="M6.75759 9.64841C5.46518 9.64841 4.41372 8.59695 4.41372 7.30454C4.41372 6.01213 5.46518 4.96067 6.75759 4.96067C8.05 4.96067 9.10146 6.01213 9.10146 7.30454C9.10146 8.59695 8.05 9.64841 6.75759 9.64841ZM6.75759 6.52325C6.32679 6.52325 5.9763 6.87374 5.9763 7.30454C5.9763 7.73534 6.32679 8.08583 6.75759 8.08583C7.1884 8.08583 7.53888 7.73534 7.53888 7.30454C7.53888 6.87374 7.18843 6.52325 6.75759 6.52325ZM13.2032 15.1174C11.9108 15.1174 10.8594 14.066 10.8594 12.7736C10.8594 11.4812 11.9108 10.4297 13.2032 10.4297C14.4956 10.4297 15.5471 11.4812 15.5471 12.7736C15.5471 14.066 14.4956 15.1174 13.2032 15.1174ZM13.2032 11.9923C12.7724 11.9923 12.4219 12.3428 12.4219 12.7736C12.4219 13.2044 12.7724 13.5549 13.2032 13.5549C13.634 13.5549 13.9845 13.2044 13.9845 12.7736C13.9845 12.3428 13.6341 11.9923 13.2032 11.9923ZM8.35416 14.7268L13.422 5.35132H11.6458L6.57793 14.7268H8.35416ZM7.83112 20C7.66588 20 7.50001 19.9786 7.33782 19.9351C7.08112 19.8661 6.84162 19.7444 6.63455 19.5777C6.42748 19.411 6.25739 19.203 6.1351 18.967L5.61765 17.9661C5.58702 17.907 5.5401 17.8579 5.48245 17.8246C5.4248 17.7913 5.35883 17.7752 5.29232 17.7782L4.16676 17.8305C3.63068 17.8557 3.1062 17.6523 2.72696 17.273C2.34772 16.8938 2.14451 16.369 2.16943 15.8332L2.22181 14.7076C2.22478 14.6411 2.20867 14.5752 2.17539 14.5175C2.1421 14.4599 2.09303 14.413 2.03395 14.3823L1.03297 13.8648C0.796948 13.7425 0.588983 13.5724 0.422309 13.3653C0.255635 13.1583 0.133905 12.9187 0.0648691 12.662C-0.00369963 12.4052 -0.0180348 12.1369 0.0227765 11.8743C0.0635878 11.6116 0.158651 11.3603 0.301912 11.1364L0.910029 10.1878C0.945847 10.1317 0.964877 10.0665 0.964877 9.99997C0.964877 9.93341 0.945847 9.86823 0.910029 9.81213L0.301834 8.86356C0.158573 8.63966 0.0635096 8.38837 0.0226983 8.12571C-0.018113 7.86304 -0.00377776 7.59476 0.064791 7.33794C0.133827 7.08124 0.255557 6.84172 0.422231 6.63464C0.588904 6.42756 0.79687 6.25745 1.03289 6.13514L2.03388 5.61766C2.09296 5.58698 2.14203 5.54005 2.17532 5.48241C2.2086 5.42476 2.22471 5.35879 2.22174 5.29229L2.16935 4.16672C2.14443 3.63095 2.34764 3.10616 2.72688 2.72692C3.10612 2.34769 3.63103 2.14439 4.16664 2.1694L5.29224 2.22174C5.35873 2.22469 5.42468 2.20858 5.48232 2.1753C5.53995 2.14203 5.58688 2.09297 5.61757 2.03392L6.13502 1.03293C6.25731 0.796912 6.4274 0.588942 6.63447 0.422262C6.84154 0.255581 7.08104 0.133842 7.33774 0.0647964C7.59457 -0.0037765 7.86287 -0.0181138 8.12555 0.0226974C8.38822 0.0635087 8.63952 0.158574 8.86344 0.30184L9.81204 0.909957C9.86814 0.945801 9.93332 0.964848 9.99989 0.964848C10.0665 0.964848 10.1316 0.945801 10.1877 0.909957L11.1363 0.30184C11.3602 0.158574 11.6115 0.0635087 11.8742 0.0226974C12.1369 -0.0181138 12.4052 -0.0037765 12.662 0.0647964C12.9187 0.133842 13.1582 0.255581 13.3653 0.422262C13.5724 0.588942 13.7425 0.796912 13.8647 1.03293L14.3822 2.03388C14.4128 2.09302 14.4597 2.14215 14.5174 2.17545C14.575 2.20874 14.641 2.22481 14.7075 2.22174L15.8331 2.1694C16.0986 2.15724 16.3638 2.20053 16.6117 2.29652C16.8596 2.39251 17.0848 2.53909 17.2729 2.72692C17.4607 2.91507 17.6072 3.14025 17.7032 3.38813C17.7992 3.63602 17.8425 3.90118 17.8304 4.16672L17.778 5.29233C17.7751 5.35882 17.7912 5.42478 17.8245 5.48242C17.8577 5.54006 17.9068 5.58699 17.9659 5.61766L18.9669 6.13511C19.2029 6.25741 19.4109 6.42752 19.5775 6.6346C19.7442 6.84168 19.8659 7.0812 19.935 7.3379C20.0035 7.59472 20.0179 7.863 19.9771 8.12567C19.9363 8.38833 19.8412 8.63962 19.6979 8.86353L19.0898 9.81213C19.054 9.86823 19.035 9.93341 19.035 9.99997C19.035 10.0665 19.054 10.1317 19.0898 10.1878L19.6979 11.1364C19.8412 11.3603 19.9363 11.6116 19.9771 11.8743C20.0179 12.1369 20.0035 12.4052 19.935 12.662C19.8659 12.9187 19.7442 13.1583 19.5775 13.3653C19.4109 13.5724 19.2029 13.7425 18.9669 13.8648L17.9659 14.3823C17.9068 14.413 17.8577 14.4599 17.8245 14.5176C17.7912 14.5752 17.7751 14.6412 17.778 14.7077L17.8304 15.8333C17.8425 16.0988 17.7992 16.364 17.7032 16.6118C17.6072 16.8597 17.4607 17.0849 17.2729 17.2731C16.8936 17.6523 16.3687 17.8556 15.8331 17.8306L14.7075 17.7782C14.641 17.7753 14.5751 17.7915 14.5175 17.8247C14.4599 17.858 14.4129 17.907 14.3822 17.9661L13.8647 18.967C13.7425 19.2031 13.5724 19.411 13.3653 19.5777C13.1582 19.7444 12.9187 19.8661 12.662 19.9352C12.4052 20.0038 12.1369 20.0181 11.8742 19.9773C11.6115 19.9365 11.3602 19.8414 11.1363 19.6981L10.1877 19.09C10.1316 19.0542 10.0665 19.0351 9.99989 19.0351C9.93332 19.0351 9.86814 19.0542 9.81204 19.09L8.86344 19.6982C8.55523 19.8953 8.197 20.0001 7.83112 20ZM5.30795 16.2153C6.01806 16.2153 6.67763 16.6138 7.00573 17.2486L7.52318 18.2495C7.58459 18.3683 7.68678 18.411 7.74225 18.4258C7.79776 18.4407 7.90757 18.4548 8.02016 18.3827L8.96876 17.7745C9.59516 17.373 10.4047 17.3729 11.0311 17.7745L11.9797 18.3826C12.0922 18.4548 12.202 18.4407 12.2576 18.4258C12.3131 18.411 12.4153 18.3683 12.4767 18.2495L12.9941 17.2485C13.3358 16.5875 14.0371 16.1828 14.7802 16.2173L15.9058 16.2697C16.0387 16.2759 16.1274 16.2087 16.168 16.1681C16.2086 16.1275 16.2758 16.0395 16.2696 15.9058L16.2172 14.7803C16.1827 14.037 16.5875 13.3359 17.2484 12.9942L18.2493 12.4768C18.3682 12.4153 18.4108 12.3131 18.4257 12.2576C18.4406 12.2022 18.4547 12.0924 18.3826 11.9797L17.7744 11.0311C17.3729 10.4047 17.3729 9.5952 17.7744 8.96884L18.3826 8.02024C18.4548 7.90762 18.4406 7.79777 18.4257 7.74234C18.4108 7.68686 18.3682 7.58463 18.2493 7.52322L17.2484 7.00577C16.5874 6.66408 16.1827 5.96307 16.2172 5.21975L16.2696 4.09414C16.2758 3.96054 16.2086 3.87249 16.168 3.8319C16.1274 3.79128 16.0401 3.72436 15.9057 3.73033L14.7801 3.78268C14.0369 3.81725 13.3357 3.41251 12.9941 2.7515L12.4768 1.75055C12.4153 1.63171 12.3131 1.58905 12.2577 1.57417C12.2021 1.55929 12.0923 1.54515 11.9798 1.61734L11.0311 2.22549C10.4047 2.62707 9.5952 2.62707 8.9688 2.22549L8.0202 1.61738C7.90761 1.54518 7.7978 1.55933 7.74229 1.57421C7.68682 1.58905 7.58463 1.63175 7.52322 1.75055L7.00577 2.75153C6.66407 3.41251 5.96298 3.81698 5.2197 3.78268L4.09414 3.73033C3.96124 3.72401 3.87248 3.79131 3.83186 3.8319C3.79127 3.87249 3.72408 3.96054 3.73029 4.09418L3.78268 5.21975C3.81721 5.96307 3.41242 6.66412 2.75153 7.00581L1.75054 7.52326C1.63171 7.58467 1.58905 7.6869 1.57416 7.74237C1.55932 7.79781 1.54518 7.90766 1.61733 8.02028L2.22545 8.96888C2.62703 9.59528 2.62703 10.4048 2.22545 11.0312L1.61733 11.9798C1.54514 12.0924 1.55932 12.2022 1.57416 12.2577C1.58905 12.3132 1.63171 12.4154 1.75054 12.4768L2.75153 12.9942C3.41246 13.3359 3.81721 14.037 3.78268 14.7803L3.73029 15.9059C3.72408 16.0395 3.79127 16.1275 3.83186 16.1681C3.87245 16.2087 3.96003 16.2757 4.09418 16.2697L5.21974 16.2173C5.24912 16.216 5.27853 16.2153 5.30795 16.2153Z" fill="#5D5D5D"/>
</g>
<defs>
<clipPath id="clip0_1817_40336">
<rect width="20" height="20" fill="white"/>
</clipPath>
</defs>
</svg>
