<svg width="35" height="35" viewBox="0 0 35 35" fill="none" xmlns="http://www.w3.org/2000/svg">
<path d="M25.8867 21.8019L23.7721 19.6873C24.1124 19.1283 24.3676 18.545 24.5378 17.9373C24.7079 17.3297 24.793 16.6978 24.793 16.0415H27.7096C27.7096 17.1109 27.5517 18.1257 27.2357 19.0858C26.9197 20.0458 26.4701 20.9512 25.8867 21.8019ZM21.5846 17.4269L18.9596 14.8019V7.2915C18.9596 6.87831 18.8199 6.53196 18.5404 6.25244C18.2609 5.97293 17.9145 5.83317 17.5013 5.83317C17.0881 5.83317 16.7418 5.97293 16.4622 6.25244C16.1827 6.53196 16.043 6.87831 16.043 7.2915V11.8853L13.1263 8.96859V7.2915C13.1263 6.07623 13.5517 5.04324 14.4023 4.19255C15.253 3.34185 16.286 2.9165 17.5013 2.9165C18.7166 2.9165 19.7496 3.34185 20.6003 4.19255C21.451 5.04324 21.8763 6.07623 21.8763 7.2915V16.0415C21.8763 16.3089 21.8459 16.5519 21.7852 16.7707C21.7244 16.9894 21.6576 17.2082 21.5846 17.4269ZM16.043 30.6248V26.1405C13.5152 25.8002 11.4249 24.67 9.77214 22.7498C8.11936 20.8297 7.29297 18.5936 7.29297 16.0415H10.2096C10.2096 18.0589 10.9084 19.7785 12.306 21.2004C13.7036 22.6222 15.4353 23.3332 17.5013 23.3332C18.3277 23.3332 19.1115 23.2056 19.8529 22.9504C20.5942 22.6951 21.2687 22.3366 21.8763 21.8748L23.9544 23.953C23.2496 24.512 22.4779 24.9859 21.6393 25.3748C20.8008 25.7637 19.9076 26.0189 18.9596 26.1405V30.6248H16.043ZM28.8763 32.9582L2.04297 6.12484L4.08464 4.08317L30.918 30.9165L28.8763 32.9582Z" fill="#5D5D5D"/>
</svg>
