<svg width="20" height="20" viewBox="0 0 20 20" fill="none" xmlns="http://www.w3.org/2000/svg">
<g clip-path="url(#clip0_2100_31209)">
<path d="M18.4136 13.1157C17.3093 12.1454 15.6509 11.0464 13.3912 10.4603C14.8384 9.40856 15.7812 7.70312 15.7812 5.78125C15.7812 2.5935 13.1877 0 10 0C6.81225 0 4.21875 2.5935 4.21875 5.78125C4.21875 7.70312 5.16162 9.40856 6.60887 10.4603C4.34912 11.0464 2.69069 12.1454 1.58644 13.1157C0.578375 14.0015 0 15.2827 0 16.6309V20H20V16.6308C20 15.2827 19.4216 14.0015 18.4136 13.1157ZM5.78125 5.78125C5.78125 3.45506 7.67384 1.5625 10 1.5625C12.3262 1.5625 14.2188 3.45509 14.2188 5.78125C14.2188 8.10741 12.3262 10 10 10C7.67384 10 5.78125 8.10741 5.78125 5.78125ZM18.4375 18.4375H1.5625V16.6308C1.5625 15.7322 1.94716 14.8787 2.61781 14.2894C4.01344 13.0632 6.427 11.6016 10 11.6016C13.573 11.6016 15.9866 13.0632 17.3822 14.2894C18.0528 14.8787 18.4375 15.7322 18.4375 16.6308V18.4375Z" fill="#5D5D5D"/>
</g>
<defs>
<clipPath id="clip0_2100_31209">
<rect width="20" height="20" fill="white"/>
</clipPath>
</defs>
</svg>
