<svg width="20" height="20" viewBox="0 0 20 20" fill="none" xmlns="http://www.w3.org/2000/svg">
<path d="M6.24613 9.83766C6.24613 9.24912 6.3743 8.68345 6.62703 8.15644L6.86614 7.6578L2.41245 3.20407L1.87704 3.95591C0.64909 5.68019 0 7.71409 0 9.83766C0 14.846 3.64064 19.0389 8.45925 19.8474L9.3692 20V13.7031L8.84933 13.5188C7.29228 12.9668 6.24613 11.4875 6.24613 9.83766ZM7.80767 18.1042C4.13818 17.0755 1.56153 13.7347 1.56153 9.83766C1.56153 8.35479 1.93533 6.92388 2.64957 5.64951L5.00151 8.00145C4.79102 8.58832 4.6846 9.20372 4.6846 9.83766C4.6846 11.9584 5.91891 13.8778 7.80767 14.7756V18.1042ZM13.5188 11.1383C13.1287 12.2388 12.2388 13.1287 11.1383 13.5188L10.6184 13.7032V20L11.5284 19.8473C15.7493 19.1392 19.1281 15.8159 19.8474 11.5284L20 10.6184H13.7032L13.5188 11.1383ZM18.1034 12.18C17.2952 15.0466 15.0466 17.2952 12.18 18.1034V14.7747C13.3084 14.2347 14.2348 13.3084 14.7747 12.18H18.1034ZM13.5188 8.84933L13.7032 9.3692H20L19.8474 8.45925C19.0382 3.63638 14.8418 0 9.83766 0C7.71409 0 5.68019 0.649051 3.95587 1.87704L3.20407 2.41241L7.65776 6.86614L8.15639 6.62703C8.68341 6.3743 9.24908 6.24613 9.83762 6.24613C11.4875 6.24613 12.9669 7.29228 13.5188 8.84933ZM8.00149 5.00147L5.64955 2.64953C6.92392 1.93533 8.35479 1.56153 9.83766 1.56153C13.7347 1.56153 17.0754 4.13814 18.1042 7.80767H14.7756C13.8778 5.91891 11.9584 4.6846 9.8377 4.6846C9.20372 4.6846 8.58835 4.79098 8.00149 5.00147Z" fill="#5D5D5D"/>
</svg>
