<svg width="4" height="22" viewBox="0 0 4 22" fill="none" xmlns="http://www.w3.org/2000/svg">
<path d="M0.662344 4.0398C1.02234 4.3998 1.50234 4.5998 2.00234 4.5998C2.50234 4.5998 2.98234 4.3998 3.34234 4.0398C3.70234 3.6798 3.90234 3.1998 3.90234 2.6998C3.90234 2.1998 3.70234 1.7198 3.34234 1.3598C2.98234 0.999805 2.50234 0.799805 2.00234 0.799805C1.50234 0.799805 1.02234 0.999805 0.662344 1.3598C0.302344 1.7198 0.102344 2.1998 0.102344 2.6998C0.102344 3.1998 0.302344 3.6798 0.662344 4.0398Z" fill="#141414"/>
<path d="M0.662344 12.3396C1.02234 12.6996 1.50234 12.8996 2.00234 12.8996C2.50234 12.8996 2.98234 12.6996 3.34234 12.3396C3.70234 11.9796 3.90234 11.4996 3.90234 10.9996C3.90234 10.4996 3.70234 10.0196 3.34234 9.65961C2.98234 9.29961 2.50234 9.09961 2.00234 9.09961C1.50234 9.09961 1.02234 9.29961 0.662344 9.65961C0.302344 10.0196 0.102344 10.4996 0.102344 10.9996C0.102344 11.4996 0.302344 11.9796 0.662344 12.3396Z" fill="#141414"/>
<path d="M0.662344 20.6394C1.02234 20.9994 1.50234 21.1994 2.00234 21.1994C2.50234 21.1994 2.98234 20.9994 3.34234 20.6394C3.70234 20.2794 3.90234 19.7994 3.90234 19.2994C3.90234 18.7994 3.70234 18.3194 3.34234 17.9594C2.98234 17.5994 2.50234 17.3994 2.00234 17.3994C1.50234 17.3994 1.02234 17.5994 0.662344 17.9594C0.302344 18.3194 0.102344 18.7994 0.102344 19.2994C0.102344 19.7994 0.302344 20.2794 0.662344 20.6394Z" fill="#141414"/>
</svg>
