<svg width="17" height="20" viewBox="0 0 17 20" fill="none" xmlns="http://www.w3.org/2000/svg">
<path d="M14.9375 7.8125V9.375C14.9375 12.8212 12.1338 15.625 8.6875 15.625C5.24121 15.625 2.4375 12.8212 2.4375 9.375V7.8125H0.875V9.375C0.875 13.4192 3.96387 16.7553 7.90625 17.1486V18.4375H4.78125V20H12.5938V18.4375H9.46875V17.1486C13.4111 16.7553 16.5 13.4192 16.5 9.375V7.8125H14.9375ZM8.6875 14.0625C11.2722 14.0625 13.375 11.9597 13.375 9.375V4.6875C13.375 2.10281 11.2722 0 8.6875 0C6.10281 0 4 2.10281 4 4.6875V9.375C4 11.9597 6.10281 14.0625 8.6875 14.0625ZM5.5625 7.8125V6.25H7.90625V4.6875H5.5625C5.5625 2.96438 6.96438 1.5625 8.6875 1.5625C10.4106 1.5625 11.8125 2.96438 11.8125 4.6875H9.46875V6.25H11.8125V7.8125H9.46875V9.375H11.8125C11.8125 11.0981 10.4106 12.5 8.6875 12.5C6.96438 12.5 5.5625 11.0981 5.5625 9.375H7.90625V7.8125H5.5625Z" fill="white"/>
</svg>
