<svg width="16" height="18" viewBox="0 0 16 18" fill="none" xmlns="http://www.w3.org/2000/svg">
<path fill-rule="evenodd" clip-rule="evenodd" d="M5.75391 15.7568H10.2406C10.2406 16.9964 9.23681 18.0002 7.99727 18.0002C6.75774 18.0002 5.75391 16.9964 5.75391 15.7568Z" fill="#067AFF"/>
<path fill-rule="evenodd" clip-rule="evenodd" d="M15.692 13.4611C15.692 14.1683 15.1167 14.7435 14.4079 14.7435H1.59266C0.883836 14.7435 0.308594 14.1702 0.308594 13.4611C0.308594 12.7561 0.881941 12.1809 1.59076 12.1809C1.76078 12.1804 1.92368 12.1125 2.04371 11.9921C2.16374 11.8717 2.23109 11.7086 2.23099 11.5385V7.69198C2.23099 5.00331 4.07003 2.74475 6.55857 2.10451V1.44191C6.55857 0.645735 7.206 3.11667e-07 8.00028 3.11667e-07C8.18967 -0.000124246 8.37722 0.0370869 8.55221 0.109506C8.72721 0.181925 8.88621 0.28813 9.02013 0.422049C9.15405 0.555968 9.26025 0.714973 9.33267 0.88997C9.40509 1.06497 9.4423 1.25252 9.44217 1.44191V2.10432C11.9305 2.74475 13.7698 5.00483 13.7698 7.69198V11.5387C13.7696 11.6229 13.786 11.7064 13.818 11.7842C13.8501 11.8621 13.8972 11.9328 13.9566 11.9925C14.0161 12.0521 14.0867 12.0995 14.1645 12.1318C14.2422 12.1641 14.3256 12.1808 14.4098 12.1809C15.1167 12.1809 15.692 12.7542 15.692 13.4611Z" fill="#067AFF"/>
</svg>
