<svg width="20" height="20" viewBox="0 0 20 20" fill="none" xmlns="http://www.w3.org/2000/svg">
<g clip-path="url(#clip0_1818_40387)">
<path d="M19.375 15.4673C18.0827 15.4673 17.0312 14.4159 17.0312 13.1236V8.43609C17.0312 4.82313 14.292 1.8384 10.7812 1.44848V0H9.21875V1.44848C5.70805 1.8384 2.96875 4.82313 2.96875 8.43609V13.1236C2.96875 14.4159 1.91734 15.4673 0.625 15.4673H0V17.0298H7.65625V17.6548C7.65625 18.9472 8.70766 19.9986 10 19.9986C11.2923 19.9986 12.3438 18.9472 12.3438 17.6548V17.0298H20V15.4673H19.375ZM10.7812 17.6548C10.7812 18.0856 10.4308 18.4361 10 18.4361C9.56922 18.4361 9.21875 18.0856 9.21875 17.6548V17.0298H10.7812V17.6548ZM3.74801 15.4673C4.23953 14.814 4.53125 14.0023 4.53125 13.1236V8.43609C4.53125 5.42063 6.98453 2.96734 10 2.96734C13.0155 2.96734 15.4688 5.42063 15.4688 8.43609V13.1236C15.4688 14.0023 15.7605 14.814 16.252 15.4673H3.74801Z" fill="#5D5D5D"/>
</g>
<defs>
<clipPath id="clip0_1818_40387">
<rect width="20" height="20" fill="white"/>
</clipPath>
</defs>
</svg>
