<svg width="45" height="42" viewBox="0 0 45 42" fill="none" xmlns="http://www.w3.org/2000/svg">
<g clip-path="url(#clip0_1706_20803)">
<path d="M44.6687 22.0233C44.6711 21.6792 44.4934 21.359 44.2001 21.1791H44.195L44.1765 21.1688L28.93 12.1437C28.8642 12.0992 28.7959 12.0586 28.7254 12.022C28.1367 11.7183 27.4374 11.7183 26.8487 12.022C26.7782 12.0586 26.7099 12.0992 26.644 12.1437L11.3976 21.1688L11.3792 21.1791C10.9132 21.4688 10.7703 22.0815 11.0601 22.5475C11.1455 22.6848 11.2631 22.7992 11.4027 22.8807L26.6492 31.9059C26.7153 31.9499 26.7836 31.9906 26.8539 32.0276C27.4425 32.3313 28.1418 32.3313 28.7305 32.0276C28.8008 31.9906 28.8691 31.95 28.9352 31.9059L44.1817 22.8807C44.4863 22.7032 44.6722 22.3758 44.6687 22.0233Z" fill="#0A2767"/>
<path d="M13.173 15.9973H23.1784V25.1687H13.173V15.9973ZM42.6202 6.67444V2.47909C42.6442 1.43015 41.814 0.560047 40.7651 0.534912H14.801C13.7521 0.560047 12.9218 1.43015 12.9458 2.47909V6.67444L28.2946 10.7675L42.6202 6.67444Z" fill="#0364B8"/>
<path d="M12.9453 6.67444H23.1779V15.8837H12.9453V6.67444Z" fill="#0078D4"/>
<path d="M33.4123 6.67444H23.1797V15.8837L33.4123 25.093H42.6215V15.8837L33.4123 6.67444Z" fill="#28A8EA"/>
<path d="M23.1797 15.8837H33.4122V25.093H23.1797V15.8837Z" fill="#0078D4"/>
<path d="M23.1797 25.093H33.4122V34.3023H23.1797V25.093Z" fill="#0364B8"/>
<path d="M13.1758 25.1688H23.1812V33.5062H13.1758V25.1688Z" fill="#14447D"/>
<path d="M33.4141 25.093H42.6234V34.3023H33.4141V25.093Z" fill="#0078D4"/>
<path d="M44.2011 22.8245L44.1817 22.8347L28.9352 31.4096C28.8687 31.4505 28.8011 31.4894 28.7305 31.5242C28.4715 31.6475 28.1903 31.7171 27.9037 31.7288L27.0708 31.2418C27.0004 31.2064 26.9321 31.1671 26.8661 31.1241L11.415 22.3057H11.4078L10.9023 22.0233V39.3818C10.9102 40.5399 11.8552 41.4725 13.0133 41.4651H42.5915C42.6089 41.4651 42.6243 41.4569 42.6427 41.4569C42.8873 41.4413 43.1285 41.391 43.3589 41.3075C43.4585 41.2653 43.5547 41.2154 43.6465 41.1581C43.715 41.1193 43.8327 41.0343 43.8327 41.0343C44.3569 40.6465 44.6672 40.0339 44.6697 39.3818V22.0233C44.6694 22.3553 44.4903 22.6614 44.2011 22.8245Z" fill="url(#paint0_linear_1706_20803)"/>
<path opacity="0.5" d="M43.851 21.9547V23.0189L27.9087 33.9953L11.4036 22.3128C11.4036 22.3072 11.399 22.3026 11.3933 22.3026L9.87891 21.3919V20.6244L10.5031 20.6142L11.8231 21.3714L11.8538 21.3816L11.9663 21.4533C11.9663 21.4533 27.4789 30.3044 27.5198 30.3249L28.1133 30.6728C28.1644 30.6523 28.2156 30.6319 28.277 30.6114C28.3077 30.5909 43.677 21.9444 43.677 21.9444L43.851 21.9547Z" fill="#0A2767"/>
<path d="M44.2011 22.8245L44.1816 22.8357L28.9351 31.4106C28.8686 31.4515 28.8011 31.4904 28.7305 31.5252C28.1384 31.8144 27.4459 31.8144 26.8538 31.5252C26.7837 31.4905 26.7154 31.4522 26.6492 31.4106L11.4027 22.8357L11.3843 22.8245C11.0899 22.6649 10.9054 22.3581 10.9023 22.0233V39.3818C10.9097 40.5397 11.8543 41.4724 13.0122 41.4651C13.0122 41.4651 13.0123 41.4651 13.0123 41.4651H42.5598C43.7177 41.4725 44.6624 40.5398 44.6698 39.3819C44.6698 39.3819 44.6698 39.3818 44.6698 39.3818V22.0233C44.6694 22.3553 44.4903 22.6614 44.2011 22.8245Z" fill="#1490DF"/>
<path opacity="0.1" d="M29.1551 31.2837L28.9269 31.4116C28.8608 31.4537 28.7924 31.4923 28.7222 31.5272C28.4708 31.6506 28.1975 31.723 27.918 31.7401L33.7188 38.6L43.8378 41.0384C44.1151 40.8289 44.3356 40.5535 44.4794 40.2372L29.1551 31.2837Z" fill="black"/>
<path opacity="0.05" d="M30.1886 30.7025L28.9269 31.4116C28.8608 31.4537 28.7924 31.4923 28.7222 31.5273C28.4708 31.6506 28.1975 31.723 27.918 31.7401L30.6357 39.2334L43.8408 41.0353C44.361 40.6448 44.6673 40.0323 44.6676 39.3817V39.1576L30.1886 30.7025Z" fill="black"/>
<path d="M13.0409 41.4651H42.5567C43.0109 41.4674 43.4539 41.3239 43.8204 41.0558L27.0698 31.2438C26.9994 31.2085 26.931 31.1692 26.8651 31.1261L11.414 22.3077H11.4068L10.9023 22.0233V39.3224C10.9012 40.5047 11.8587 41.464 13.0409 41.4651Z" fill="#28A8EA"/>
<path opacity="0.1" d="M25.2279 10.5966V32.4226C25.2261 33.1879 24.7608 33.8757 24.0512 34.1621C23.8314 34.2566 23.5946 34.3054 23.3554 34.3054H10.9023V9.74419H12.9489V8.72095H23.3554C24.3891 8.72486 25.2257 9.56282 25.2279 10.5966Z" fill="black"/>
<path opacity="0.2" d="M24.2047 11.6198V33.4459C24.2072 33.6931 24.1548 33.9377 24.0512 34.1621C23.767 34.8626 23.088 35.3221 22.3321 35.3256H10.9023V9.74423H22.3321C22.629 9.74125 22.9216 9.81531 23.1814 9.95912C23.8087 10.2751 24.2044 10.9175 24.2047 11.6198Z" fill="black"/>
<path opacity="0.2" d="M24.2047 11.6198V31.3994C24.1997 32.4326 23.3654 33.2701 22.3321 33.2791H10.9023V9.74423H22.3321C22.629 9.74125 22.9216 9.81531 23.1814 9.95912C23.8087 10.2751 24.2044 10.9175 24.2047 11.6198Z" fill="black"/>
<path opacity="0.2" d="M23.1814 11.6198V31.3993C23.1803 32.4342 22.3437 33.274 21.3089 33.279H10.9023V9.7442H21.3088C22.3436 9.74475 23.182 10.5841 23.1814 11.6188C23.1814 11.6191 23.1814 11.6195 23.1814 11.6198Z" fill="black"/>
<path d="M2.54359 9.7442H21.3039C22.3398 9.7442 23.1796 10.584 23.1796 11.6198V30.3802C23.1796 31.4161 22.3398 32.2558 21.3039 32.2558H2.54359C1.5077 32.2558 0.667969 31.416 0.667969 30.3802V11.6198C0.667969 10.584 1.50773 9.7442 2.54359 9.7442Z" fill="url(#paint1_linear_1706_20803)"/>
<path d="M6.52953 17.611C6.99181 16.6261 7.73797 15.8018 8.67224 15.2442C9.70688 14.6519 10.8849 14.3566 12.0766 14.3908C13.1811 14.3668 14.271 14.6468 15.2272 15.2002C16.1263 15.7363 16.8503 16.5219 17.3116 17.4616C17.8139 18.497 18.0642 19.6365 18.0422 20.7872C18.0665 21.9897 17.809 23.1812 17.2901 24.2662C16.8179 25.2395 16.0708 26.053 15.1413 26.6064C14.1482 27.1767 13.0178 27.4641 11.873 27.4373C10.7449 27.4645 9.63097 27.1813 8.6528 26.6187C7.74597 26.0818 7.01281 25.2954 6.5408 24.3532C6.03551 23.3327 5.78219 22.206 5.80201 21.0675C5.78096 19.8752 6.02967 18.6936 6.52953 17.611ZM8.81344 23.1672C9.05991 23.7899 9.47787 24.3299 10.0188 24.7246C10.5698 25.1097 11.2296 25.3084 11.9016 25.2915C12.6173 25.3198 13.3227 25.1144 13.9113 24.7062C14.4454 24.3127 14.8524 23.7713 15.0819 23.1488C15.3384 22.4537 15.4651 21.7173 15.4554 20.9765C15.4633 20.2285 15.3443 19.4846 15.1034 18.7765C14.8906 18.1371 14.4967 17.5733 13.9696 17.1536C13.3958 16.7261 12.6922 16.5093 11.9773 16.5396C11.2908 16.5219 10.6162 16.7221 10.0505 17.1116C9.50044 17.508 9.07454 18.0528 8.82264 18.6823C8.26383 20.1253 8.26093 21.7243 8.81444 23.1693L8.81344 23.1672Z" fill="white"/>
<path d="M33.4141 6.67444H42.6234V15.8837H33.4141V6.67444Z" fill="#50D9FF"/>
</g>
<defs>
<linearGradient id="paint0_linear_1706_20803" x1="27.7861" y1="22.0233" x2="27.7861" y2="41.4651" gradientUnits="userSpaceOnUse">
<stop stop-color="#35B8F1"/>
<stop offset="1" stop-color="#28A8EA"/>
</linearGradient>
<linearGradient id="paint1_linear_1706_20803" x1="4.57869" y1="8.27863" x2="19.2689" y2="33.7214" gradientUnits="userSpaceOnUse">
<stop stop-color="#1784D9"/>
<stop offset="0.5" stop-color="#107AD5"/>
<stop offset="1" stop-color="#0A63C9"/>
</linearGradient>
<clipPath id="clip0_1706_20803">
<rect width="44" height="40.9302" fill="white" transform="translate(0.667969 0.534912)"/>
</clipPath>
</defs>
</svg>
