<svg width="24" height="17" viewBox="0 0 24 17" fill="none" xmlns="http://www.w3.org/2000/svg">
<path d="M23.691 8.0042C22.7717 6.52877 18.0932 0.0625 12 0.0625C5.90812 0.0625 1.22841 6.52867 0.308953 8.0042L0 8.5L0.308953 8.9958C1.22831 10.4712 5.90677 16.9375 12 16.9375C18.0919 16.9375 22.7716 10.4714 23.691 8.9958L24 8.5L23.691 8.0042ZM12 15.0625C7.27331 15.0625 3.38147 10.1053 2.24494 8.49925C3.37936 6.89191 7.26122 1.9375 12 1.9375C16.7264 1.9375 20.618 6.89402 21.7551 8.50075C20.6206 10.1081 16.7388 15.0625 12 15.0625ZM12 3.8125C9.41527 3.8125 7.3125 5.91531 7.3125 8.5C7.3125 11.0847 9.41527 13.1875 12 13.1875C14.5847 13.1875 16.6875 11.0847 16.6875 8.5C16.6875 5.91531 14.5847 3.8125 12 3.8125ZM12 11.3125C10.4492 11.3125 9.1875 10.0508 9.1875 8.5C9.1875 6.94919 10.4492 5.6875 12 5.6875C13.5508 5.6875 14.8125 6.94919 14.8125 8.5C14.8125 10.0508 13.5508 11.3125 12 11.3125Z" fill="#6D6D6D"/>
</svg>
