<svg width="19" height="22" viewBox="0 0 19 22" fill="none" xmlns="http://www.w3.org/2000/svg">
<path d="M19 14.0478L12.1083 22L7.62724 17.5792L8.76918 16.336L12.0154 19.5385L17.7678 12.9007L19 14.0478ZM7.93674 20.2542L9.67662 21.9708H2.48438C1.11441 21.9708 0 20.8158 0 19.396V2.57477C0 1.15496 1.11441 0 2.48438 0H10.9209L16.8058 6.13027V11.5304L15.1542 13.4114V7.34263H12.2099C10.8401 7.34263 9.7255 6.18763 9.7255 4.76803V1.71639H2.48438C2.02766 1.71639 1.65613 2.10143 1.65613 2.57477V19.396C1.65613 19.8694 2.02766 20.2542 2.48438 20.2542L7.93674 20.2542ZM12.2099 5.62616H13.9893L11.3818 2.91259V4.76798C11.3818 5.24116 11.7533 5.62616 12.2099 5.62616ZM3.31247 14.5471H9.81298V12.8305H3.31243L3.31247 14.5471ZM13.4981 9.39774H3.31247V11.1141H13.4981V9.39774Z" fill="#765CF6"/>
</svg>
