<svg width="18" height="20" viewBox="0 0 18 20" fill="none" xmlns="http://www.w3.org/2000/svg">
<path d="M9.00123 0L0.40625 1.69751V7.59796C0.40625 10.2496 1.19156 12.8139 2.67724 15.0137C4.16452 17.2158 6.25103 18.8999 8.71103 19.8839L9.00123 20L9.29142 19.8839C11.7515 18.8999 13.8379 17.2158 15.3252 15.0137C16.8109 12.8139 17.5962 10.2496 17.5962 7.59796V1.69751L9.00123 0ZM16.0335 7.59796C16.0335 12.2954 13.2839 16.467 9.00123 18.3124C4.71854 16.467 1.96897 12.2954 1.96897 7.59796V2.98179L9.00123 1.59292L16.0335 2.98179V7.59796ZM5.64696 7.64734L4.54192 8.75234L8.2199 12.4303L13.4606 7.18962L12.3556 6.08462L8.21986 10.2203L5.64696 7.64734Z" fill="#5D5D5D"/>
</svg>
