<svg width="26" height="26" viewBox="0 0 26 26" fill="none" xmlns="http://www.w3.org/2000/svg">
<path d="M17.5195 12.2891C13.7395 12.2891 10.6641 15.3645 10.6641 19.1445C10.6641 22.9245 13.7395 26 17.5195 26C21.2995 26 24.375 22.9245 24.375 19.1445C24.375 15.3645 21.2995 12.2891 17.5195 12.2891ZM17.5195 23.9688C14.8595 23.9688 12.6953 21.8046 12.6953 19.1445C12.6953 16.4845 14.8595 14.3203 17.5195 14.3203C20.1796 14.3203 22.3438 16.4845 22.3438 19.1445C22.3438 21.8046 20.1796 23.9688 17.5195 23.9688ZM10.0597 23.9688H4.67188C4.11191 23.9688 3.65625 23.5131 3.65625 22.9531V5.07812C3.65625 4.51816 4.11191 4.0625 4.67188 4.0625H6.34766V8.07422H16.5039V4.0625H18.1289C18.6889 4.0625 19.1445 4.51816 19.1445 5.07812V10.4072C19.8449 10.5369 20.527 10.7512 21.1758 11.0451V5.07812C21.1758 3.39798 19.8091 2.03125 18.1289 2.03125H14.2987C13.8793 0.849012 12.7499 0 11.4258 0C10.1017 0 8.97223 0.849012 8.55288 2.03125H4.67188C2.99173 2.03125 1.625 3.39798 1.625 5.07812V22.9531C1.625 24.6333 2.99173 26 4.67188 26H11.8707C11.1671 25.4191 10.5564 24.7341 10.0597 23.9688ZM10.4102 4.0625V3.04688C10.4102 2.48691 10.8658 2.03125 11.4258 2.03125C11.9857 2.03125 12.4414 2.48691 12.4414 3.04688V4.0625H14.4727V6.04297H8.37891V4.0625H10.4102ZM18.4844 18.1289H20.2109V20.1602H16.4531V15.7422H18.4844V18.1289Z" fill="#A25B0E"/>
<path d="M5.46094 18.7891H8.33854V20.8203H5.46094V18.7891ZM5.46094 16.8086H9.42188V14.7773H5.46094V16.8086ZM5.46094 12.7969H12.4857V10.7656H5.46094V12.7969Z" fill="#A25B0E"/>
</svg>
