<svg width="18" height="18" viewBox="0 0 18 18" fill="none" xmlns="http://www.w3.org/2000/svg">
<path d="M15.8906 5.58984H14.0977V0H3.90234V5.58984H2.10938C0.946195 5.58984 0 6.53604 0 7.69922V13.3945C0 14.5577 0.946195 15.5039 2.10938 15.5039H3.90234V18H14.0977V15.5039H15.8906C17.0538 15.5039 18 14.5577 18 13.3945V7.69922C18 6.53604 17.0538 5.58984 15.8906 5.58984ZM5.30859 1.40625H12.6914V5.58984H5.30859V1.40625ZM5.30859 16.5938V11.918H12.6914V16.5938H5.30859ZM16.5938 13.3945C16.5938 13.7822 16.2783 14.0977 15.8906 14.0977H14.0977V11.918H15.1875V10.5117H2.8125V11.918H3.90234V14.0977H2.10938C1.72171 14.0977 1.40625 13.7822 1.40625 13.3945V7.69922C1.40625 7.31155 1.72171 6.99609 2.10938 6.99609H15.8906C16.2783 6.99609 16.5938 7.31155 16.5938 7.69922V13.3945ZM11.2852 2.8125V4.21875H6.71484V2.8125H11.2852Z" fill="#141414"/>
</svg>
