<svg width="20" height="20" viewBox="0 0 20 20" fill="none" xmlns="http://www.w3.org/2000/svg">
<path d="M17.0655 12.9217C15.9769 11.8332 14.6812 11.0273 13.2675 10.5395C14.7816 9.49672 15.7764 7.75148 15.7764 5.77801C15.7764 2.59203 13.1843 0 9.99836 0C6.81238 0 4.22035 2.59203 4.22035 5.77801C4.22035 7.75145 5.21508 9.49668 6.72918 10.5395C5.31551 11.0273 4.01984 11.8331 2.93125 12.9217C1.04352 14.8095 0.00390625 17.3193 0.00390625 19.9889H1.56555C1.56555 15.6583 4.84703 12.0803 9.05395 11.6093L7.57246 17.5738L9.99836 20L12.424 17.5738L10.9427 11.6092C15.1496 12.0803 18.4311 15.6583 18.4311 19.9889H19.9927C19.9927 17.3192 18.9531 14.8094 17.0655 12.9217ZM9.99828 17.7914L9.30078 17.0938L9.99828 14.2855L10.6957 17.0938L9.99828 17.7914ZM9.99832 9.99445C7.67336 9.99445 5.78191 8.10297 5.78191 5.77809C5.78191 3.45316 7.67336 1.56168 9.99832 1.56168C12.3233 1.56168 14.2147 3.45312 14.2147 5.77805C14.2147 8.10297 12.3233 9.99445 9.99832 9.99445Z" fill="#5D5D5D"/>
</svg>
