<svg width="22" height="22" viewBox="0 0 22 22" fill="none" xmlns="http://www.w3.org/2000/svg">
<path d="M20.8739 11.1071L19.8442 10.2126V18.654C19.8442 20.0745 18.6886 21.2299 17.2682 21.2299H14.1736C14.4335 20.9637 14.7087 20.668 14.9857 20.3482C15.2284 20.0681 15.4547 19.7895 15.6651 19.5127H17.2681C17.7416 19.5127 18.1268 19.1275 18.1268 18.654V8.72131L11 2.5323L3.87306 8.72131V18.654C3.87306 19.1275 4.25827 19.5127 4.73177 19.5127H6.33487C6.54518 19.7893 6.77144 20.0681 7.01431 20.3482C7.29126 20.6678 7.56653 20.9637 7.82619 21.2299H4.73177C3.31145 21.2299 2.15582 20.0745 2.15582 18.654V10.2126L1.12592 11.1071L0 9.81047L11 0.257812L22 9.81047L20.8739 11.1071ZM11 13.0257C10.2887 13.0257 9.71194 13.6023 9.71194 14.3136C9.71194 15.025 10.2887 15.6017 11 15.6017C11.7113 15.6017 12.2881 15.025 12.2881 14.3136C12.2881 13.6023 11.7113 13.0257 11 13.0257ZM15.9362 14.5741C15.9362 15.9374 15.1797 17.5015 13.6877 19.2236C12.6315 20.4429 11.586 21.2981 11.542 21.3338L11 21.7751L10.4579 21.3338C10.4139 21.2981 9.36836 20.4429 8.3121 19.2236C6.82011 17.5015 6.06363 15.9374 6.06363 14.5741V14.317C6.06363 11.595 8.27803 9.38062 11 9.38062C13.7218 9.38062 15.9362 11.595 15.9362 14.317V14.5741ZM14.219 14.317C14.219 12.542 12.7748 11.0979 11 11.0979C9.22502 11.0979 7.78104 12.542 7.78104 14.317V14.5743C7.78104 15.4859 8.4306 16.7378 9.61006 18.0992C10.1215 18.6896 10.6339 19.1889 11.0023 19.528C12.2315 18.4009 14.2188 16.2298 14.2188 14.5743V14.317H14.219Z" fill="#7F878E"/>
</svg>
