<svg width="18" height="18" viewBox="0 0 18 18" fill="none" xmlns="http://www.w3.org/2000/svg">
<path d="M9 0C4.02215 0 0 4.02215 0 9C0 13.9779 4.02215 18 9 18C13.9779 18 18 13.9779 18 9C18 4.02215 13.9779 0 9 0ZM11.6886 11.6905L8.75236 10.1033C8.49122 9.96216 8.27309 9.75304 8.12107 9.49809C7.96904 9.24313 7.88876 8.95181 7.88874 8.65497V3.66347C7.88874 3.42855 7.98206 3.20324 8.14818 3.03713C8.3143 2.87101 8.5396 2.77768 8.77453 2.77768H8.78078C9.01571 2.77768 9.24101 2.87101 9.40713 3.03713C9.57324 3.20324 9.66657 3.42855 9.66657 3.66347V8.57747L12.5325 10.1329C12.6348 10.1883 12.7252 10.2633 12.7985 10.3536C12.8718 10.444 12.9265 10.5478 12.9597 10.6593C12.9928 10.7709 13.0037 10.8878 12.9916 11.0035C12.9796 11.1192 12.9448 11.2314 12.8894 11.3337C12.834 11.4359 12.759 11.5263 12.6687 11.5996C12.5783 11.6729 12.4744 11.7276 12.3629 11.7608C12.2514 11.7939 12.1345 11.8048 12.0188 11.7927C11.9031 11.7807 11.7909 11.7459 11.6886 11.6905Z" fill="#067AFF"/>
</svg>
