<svg width="20" height="20" viewBox="0 0 20 20" fill="none" xmlns="http://www.w3.org/2000/svg">
<g clip-path="url(#clip0_1817_40272)">
<path d="M17.6562 1.5625H16.7188V0H15.1562V1.5625H4.84375V0H3.28125V1.5625H2.34375C1.05141 1.5625 0 2.61391 0 3.90625V17.6562C0 18.9486 1.05141 20 2.34375 20H17.6562C18.9486 20 20 18.9486 20 17.6562V3.90625C20 2.61391 18.9486 1.5625 17.6562 1.5625ZM2.34375 3.125H3.28125V4.6875H4.84375V3.125H15.1562V4.6875H16.7188V3.125H17.6562C18.087 3.125 18.4375 3.47547 18.4375 3.90625V5.78125H1.5625V3.90625C1.5625 3.47547 1.91297 3.125 2.34375 3.125ZM17.6562 18.4375H2.34375C1.91297 18.4375 1.5625 18.087 1.5625 17.6562V7.34375H18.4375V17.6562C18.4375 18.087 18.087 18.4375 17.6562 18.4375Z" fill="#5D5D5D"/>
<path d="M11.5625 13.5977H8.4375V12.0352H11.5625V13.5977Z" fill="#5D5D5D"/>
<path d="M11.5625 16.7227H8.4375V15.1602H11.5625V16.7227Z" fill="#5D5D5D"/>
<path d="M6.875 10.4727H3.75V8.91016H6.875V10.4727Z" fill="#5D5D5D"/>
<path d="M6.875 16.7227H3.75V15.1602H6.875V16.7227Z" fill="#5D5D5D"/>
<path d="M6.875 13.5977H3.75V12.0352H6.875V13.5977Z" fill="#5D5D5D"/>
<path d="M16.25 13.5977H13.125V12.0352H16.25V13.5977Z" fill="#5D5D5D"/>
<path d="M16.25 10.4727H13.125V8.91016H16.25V10.4727Z" fill="#5D5D5D"/>
<path d="M11.5625 10.4727H8.4375V8.91016H11.5625V10.4727Z" fill="#5D5D5D"/>
<path d="M16.25 16.7227H13.125V15.1602H16.25V16.7227Z" fill="#5D5D5D"/>
</g>
<defs>
<clipPath id="clip0_1817_40272">
<rect width="20" height="20" fill="white"/>
</clipPath>
</defs>
</svg>
