<svg width="18" height="18" viewBox="0 0 18 18" fill="none" xmlns="http://www.w3.org/2000/svg">
<path d="M0.453205 9.39324L16.635 0.12922C16.7754 0.0444666 16.9364 -0.000222502 17.1004 8.33004e-07C17.238 -9.16921e-05 17.3738 0.0313948 17.4974 0.0920368C17.6209 0.152679 17.7289 0.24086 17.813 0.349792C17.8971 0.458724 17.9551 0.585504 17.9825 0.720373C18.01 0.855243 18.0061 0.994605 17.9712 1.12774L14.5332 15.5092C14.4899 15.6897 14.392 15.8525 14.2528 15.9754C14.1136 16.0982 13.9399 16.1751 13.7554 16.1957C13.5993 16.2138 13.4413 16.183 13.2954 16.1244L10.5511 15.0217L7.86117 17.7116C7.64763 17.9251 7.34467 18.04 7.04739 17.9873C6.83824 17.9512 6.64857 17.8423 6.51185 17.68C6.37513 17.5177 6.30014 17.3122 6.30011 17.1V13.7659C6.30011 13.5603 6.36813 13.3604 6.49337 13.1973L11.0024 7.33501C11.0987 7.20977 10.9395 7.04891 10.8135 7.14403L4.29171 12.0599C4.17371 12.1488 4.03473 12.2058 3.88823 12.2253C3.74174 12.2447 3.5927 12.226 3.45557 12.1709L0.595308 11.0218C0.347101 10.9219 0.139629 10.7288 0.0517143 10.4761C-0.0187383 10.2772 -0.0171606 10.0598 0.0561723 9.86195C0.129505 9.66408 0.270133 9.49821 0.453205 9.39324Z" fill="#067AFF"/>
</svg>
