<svg width="20" height="20" viewBox="0 0 20 20" fill="none" xmlns="http://www.w3.org/2000/svg">
<path d="M20 12.7344V7.26562H17.9425C17.8311 6.94182 17.6998 6.62518 17.5495 6.3175L19.0045 4.86242L15.1375 0.99543L13.6825 2.45051C13.3748 2.30019 13.0582 2.16893 12.7344 2.05746V0H7.26562V2.05746C6.94183 2.16892 6.62519 2.30019 6.3175 2.45051L4.86246 0.99543L0.995469 4.86242L2.45055 6.3175C2.30021 6.62518 2.16895 6.94182 2.0575 7.26562H0V12.7344H2.05746C2.16893 13.0582 2.3002 13.3748 2.45051 13.6825L0.99543 15.1376L4.86242 19.0046L6.31746 17.5495C6.62516 17.6998 6.9418 17.831 7.26559 17.9425V20H12.7343V17.9425C13.0581 17.8311 13.3748 17.6998 13.6825 17.5495L15.1375 19.0046L19.0045 15.1376L17.5494 13.6825C17.6998 13.3748 17.831 13.0582 17.9425 12.7344H20ZM16.7948 15.1376L15.1375 16.7948L13.9317 15.5889C13.1229 16.1596 12.1853 16.5592 11.1719 16.735V18.4375H8.82812V16.7351C7.81469 16.5593 6.87711 16.1596 6.06832 15.589L4.86246 16.7949L3.20516 15.1376L4.41105 13.9317C3.84035 13.1229 3.44074 12.1853 3.26496 11.1719H1.5625V8.82812H3.26496C3.44078 7.81469 3.84039 6.87711 4.41105 6.06832L3.20516 4.86242L4.86246 3.20516L6.06832 4.41105C6.87715 3.84039 7.81473 3.44078 8.82812 3.26496V1.5625H11.1719V3.26496C12.1853 3.44078 13.1229 3.84039 13.9317 4.41105L15.1375 3.20516L16.7948 4.86242L15.5889 6.06832C16.1596 6.87715 16.5592 7.81473 16.735 8.82812H18.4375V11.1719H16.735C16.5592 12.1853 16.1596 13.1229 15.5889 13.9317L16.7948 15.1376ZM10 4.92188C7.19988 4.92188 4.92188 7.19992 4.92188 10C4.92188 12.8001 7.19988 15.0781 10 15.0781C12.8001 15.0781 15.0781 12.8001 15.0781 10C15.0781 7.19992 12.8001 4.92188 10 4.92188ZM10 13.5156C8.06148 13.5156 6.48438 11.9385 6.48438 10C6.48438 8.06148 8.06148 6.48438 10 6.48438C11.9385 6.48438 13.5156 8.06148 13.5156 10C13.5156 11.9385 11.9385 13.5156 10 13.5156Z" fill="#5D5D5D"/>
</svg>
