<svg width="17" height="18" viewBox="0 0 17 18" fill="none" xmlns="http://www.w3.org/2000/svg">
<path fill-rule="evenodd" clip-rule="evenodd" d="M8.07978 2.2014C6.38802 2.2014 4.76556 2.87345 3.5693 4.0697C2.37305 5.26595 1.70101 6.88842 1.70101 8.58017C1.70101 10.2719 2.37305 11.8944 3.5693 13.0906C4.76556 14.2869 6.38802 14.9589 8.07978 14.9589C9.77153 14.9589 11.394 14.2869 12.5902 13.0906C13.7865 11.8944 14.4585 10.2719 14.4585 8.58017C14.4585 6.88842 13.7865 5.26595 12.5902 4.0697C11.394 2.87345 9.77153 2.2014 8.07978 2.2014ZM9.49612e-09 8.58017C-6.26596e-05 7.28744 0.310061 6.01356 0.904328 4.86552C1.49859 3.71748 2.35965 2.72878 3.4152 1.98247C4.47074 1.23615 5.68995 0.754008 6.97044 0.576519C8.25093 0.399029 9.55531 0.531378 10.7741 0.962452C11.9928 1.39353 13.0903 2.11074 13.9744 3.05386C14.8586 3.99698 15.5035 5.13848 15.855 6.38249C16.2066 7.6265 16.2545 8.93671 15.9948 10.2031C15.7351 11.4695 15.1753 12.655 14.3624 13.6602L16.7609 16.0586C16.9158 16.219 17.0015 16.4339 16.9996 16.6569C16.9976 16.8799 16.9082 17.0932 16.7505 17.2509C16.5928 17.4086 16.3795 17.498 16.1565 17.5C15.9335 17.5019 15.7187 17.4162 15.5582 17.2613L13.1598 14.8628C11.9736 15.822 10.54 16.4257 9.02501 16.6042C7.50999 16.7826 5.9754 16.5285 4.59875 15.8713C3.22209 15.2141 2.05962 14.1805 1.2458 12.8903C0.431981 11.6 5.98082e-05 10.1057 9.49612e-09 8.58017Z" fill="#6D6D6D"/>
</svg>
