<svg width="18" height="18" viewBox="0 0 18 18" fill="none" xmlns="http://www.w3.org/2000/svg">
<g clip-path="url(#clip0_1205_36371)">
<path d="M15.4084 0H2.10938C0.946266 0 0 0.946266 0 2.10938V15.8906C0 17.0537 0.946266 18 2.10938 18H15.8906C17.0537 18 18 17.0537 18 15.8906V2.59158L15.4084 0ZM13.0964 1.40625V4.65469H5.01049V1.40625H13.0964ZM13.0964 16.5938H5.01049V11.0391H13.0964V16.5938ZM16.5938 15.8906C16.5938 16.2783 16.2783 16.5938 15.8906 16.5938H14.5027V9.63281H3.60424V16.5938H2.10938C1.72167 16.5938 1.40625 16.2783 1.40625 15.8906V2.10938C1.40625 1.72167 1.72167 1.40625 2.10938 1.40625H3.60424V6.06094H14.5027V1.40625H14.826L16.5938 3.17405V15.8906Z" fill="#141414"/>
</g>
<defs>
<clipPath id="clip0_1205_36371">
<rect width="18" height="18" fill="white"/>
</clipPath>
</defs>
</svg>
