<svg width="20" height="20" viewBox="0 0 20 20" fill="none" xmlns="http://www.w3.org/2000/svg">
<path d="M8.42105 11.5198V12.2996C8.42105 13.1514 9.14977 13.8987 9.98051 13.8987C10.8258 13.8987 11.54 13.1724 11.54 12.3128C11.54 11.5729 10.8161 11.158 9.63496 10.5424L9.62012 10.5346C8.71961 10.0652 7.21246 9.27969 7.21246 7.33445C7.21246 6.10316 8.05305 5.06137 9.20078 4.73027V2.9825H10.7602V4.7309C11.908 5.06375 12.7486 6.11109 12.7486 7.34898V8.12871H11.1891V7.34898C11.1891 6.70406 10.6469 6.17938 9.98051 6.17938C9.3141 6.17938 8.77191 6.69758 8.77191 7.33449C8.77191 8.18969 9.25594 8.58625 10.3409 9.1518L10.3557 9.15957C10.9741 9.48191 11.6135 9.81516 12.1177 10.26C12.7691 10.8346 13.0994 11.5253 13.0994 12.3128C13.0994 13.1381 12.7745 13.9226 12.1847 14.5217C11.7814 14.9312 11.2916 15.2154 10.7602 15.3563V17.0176H9.20078V15.3535C7.87289 14.9925 6.8616 13.7402 6.8616 12.2996V11.5198H8.42105ZM18.4405 1.81289V4.70027C17.7298 3.5657 16.7947 2.58223 15.6776 1.80438C14.0008 0.636719 12.0307 0.0195312 9.98051 0.0195312C7.31461 0.0195312 4.80832 1.0577 2.92324 2.94273C1.03816 4.82785 0 7.33414 0 10H1.55945C1.55945 5.35664 5.33711 1.57898 9.98051 1.57898C13.0157 1.57898 15.7361 3.16391 17.2328 5.71152H14.5419V7.27098H20V1.81289H18.4405ZM10.0195 18.4211C6.98434 18.4211 4.26391 16.8361 2.76719 14.2886H5.45809V12.7291H0V18.1872H1.55945V15.2998C2.27016 16.4344 3.20531 17.4179 4.32238 18.1957C5.99918 19.3634 7.96926 19.9805 10.0195 19.9805C12.6839 19.9805 15.1838 18.9418 17.0589 17.0557C18.9303 15.1732 19.961 12.6675 19.961 10H18.4016C18.4016 14.6434 14.6414 18.4211 10.0195 18.4211Z" fill="#5D5D5D"/>
</svg>
