<svg width="20" height="20" viewBox="0 0 20 20" fill="none" xmlns="http://www.w3.org/2000/svg">
<g clip-path="url(#clip0_1818_40442)">
<path d="M8.05899 3.88242L8.63408 5.4753C8.94964 6.34853 9.45445 7.14159 10.1125 7.79793C10.7706 8.45428 11.5658 8.95777 12.4413 9.27249L14.0384 9.84607C14.0699 9.8576 14.0972 9.87852 14.1164 9.90598C14.1356 9.93345 14.146 9.96614 14.146 9.99964C14.146 10.0331 14.1356 10.0658 14.1164 10.0933C14.0972 10.1208 14.0699 10.1417 14.0384 10.1532L12.4413 10.7268C11.5658 11.0415 10.7706 11.545 10.1125 12.2014C9.45445 12.8577 8.94964 13.6508 8.63408 14.524L8.05899 16.1169C8.04742 16.1483 8.02645 16.1755 7.99892 16.1947C7.97138 16.2138 7.9386 16.2241 7.90501 16.2241C7.87142 16.2241 7.83864 16.2138 7.8111 16.1947C7.78356 16.1755 7.76259 16.1483 7.75103 16.1169L7.17593 14.524C6.86037 13.6508 6.35556 12.8577 5.69747 12.2014C5.03939 11.545 4.24424 11.0415 3.36869 10.7268L1.7716 10.1532C1.74007 10.1417 1.71284 10.1208 1.69361 10.0933C1.67438 10.0658 1.66406 10.0331 1.66406 9.99964C1.66406 9.96614 1.67438 9.93345 1.69361 9.90598C1.71284 9.87852 1.74007 9.8576 1.7716 9.84607L3.36869 9.27249C4.24424 8.95777 5.03939 8.45428 5.69747 7.79793C6.35556 7.14159 6.86037 6.34853 7.17593 5.4753L7.75103 3.88242C7.76227 3.85065 7.78312 3.82314 7.8107 3.80368C7.83827 3.78422 7.87122 3.77377 7.90501 3.77377C7.93879 3.77377 7.97174 3.78422 7.99932 3.80368C8.0269 3.82314 8.04774 3.85065 8.05899 3.88242ZM15.248 0.0545105L15.5395 0.86095C15.6995 1.30308 15.9551 1.70461 16.2884 2.03697C16.6216 2.36932 17.0242 2.62433 17.4675 2.78383L18.2761 3.07455C18.2921 3.08037 18.3059 3.09096 18.3157 3.10489C18.3255 3.11882 18.3307 3.13541 18.3307 3.15241C18.3307 3.16941 18.3255 3.186 18.3157 3.19993C18.3059 3.21386 18.2921 3.22445 18.2761 3.23027L17.4675 3.52099C17.0242 3.68049 16.6216 3.9355 16.2884 4.26785C15.9551 4.60021 15.6995 5.00174 15.5395 5.44387L15.248 6.25031C15.2422 6.26629 15.2316 6.28009 15.2176 6.28984C15.2037 6.29959 15.187 6.30482 15.17 6.30482C15.1529 6.30482 15.1363 6.29959 15.1223 6.28984C15.1084 6.28009 15.0977 6.26629 15.0919 6.25031L14.8004 5.44387C14.6405 5.00174 14.3848 4.60021 14.0516 4.26785C13.7184 3.9355 13.3158 3.68049 12.8725 3.52099L12.0639 3.23027C12.0479 3.22445 12.034 3.21386 12.0243 3.19993C12.0145 3.186 12.0092 3.16941 12.0092 3.15241C12.0092 3.13541 12.0145 3.11882 12.0243 3.10489C12.034 3.09096 12.0479 3.08037 12.0639 3.07455L12.8725 2.78383C13.3158 2.62433 13.7184 2.36932 14.0516 2.03697C14.3848 1.70461 14.6405 1.30308 14.8004 0.86095L15.0919 0.0545105C15.0977 0.038534 15.1084 0.0247338 15.1223 0.0149823C15.1363 0.00523073 15.1529 0 15.17 0C15.187 0 15.2037 0.00523073 15.2176 0.0149823C15.2316 0.0247338 15.2422 0.038534 15.248 0.0545105ZM15.248 13.7497L15.5395 14.5561C15.6995 14.9983 15.9551 15.3998 16.2884 15.7321C16.6216 16.0645 17.0242 16.3195 17.4675 16.479L18.2761 16.7697C18.2921 16.7756 18.3059 16.7861 18.3157 16.8001C18.3255 16.814 18.3307 16.8306 18.3307 16.8476C18.3307 16.8646 18.3255 16.8812 18.3157 16.8951C18.3059 16.909 18.2921 16.9196 18.2761 16.9255L17.4675 17.2162C17.0242 17.3757 16.6216 17.6307 16.2884 17.963C15.9551 18.2954 15.6995 18.6969 15.5395 19.1391L15.248 19.9455C15.2422 19.9615 15.2316 19.9753 15.2176 19.985C15.2037 19.9948 15.187 20 15.17 20C15.1529 20 15.1363 19.9948 15.1223 19.985C15.1084 19.9753 15.0977 19.9615 15.0919 19.9455L14.8004 19.1391C14.6405 18.6969 14.3848 18.2954 14.0516 17.963C13.7184 17.6307 13.3158 17.3757 12.8725 17.2162L12.0639 16.9255C12.0479 16.9196 12.034 16.909 12.0243 16.8951C12.0145 16.8812 12.0092 16.8646 12.0092 16.8476C12.0092 16.8306 12.0145 16.814 12.0243 16.8001C12.034 16.7861 12.0479 16.7756 12.0639 16.7697L12.8725 16.479C13.3158 16.3195 13.7184 16.0645 14.0516 15.7321C14.3848 15.3998 14.6405 14.9983 14.8004 14.5561L15.0919 13.7497C15.1184 13.6768 15.2223 13.6768 15.248 13.7497Z" fill="white"/>
</g>
<defs>
<clipPath id="clip0_1818_40442">
<rect width="20" height="20" fill="white"/>
</clipPath>
</defs>
</svg>
