<svg width="18" height="19" viewBox="0 0 18 19" fill="none" xmlns="http://www.w3.org/2000/svg">
<path d="M16.5722 12.3041C15.5784 11.4309 14.0858 10.4417 12.0521 9.91428C13.3545 8.96771 14.2031 7.43281 14.2031 5.70312C14.2031 2.83415 11.869 0.5 9 0.5C6.13102 0.5 3.79688 2.83415 3.79688 5.70312C3.79688 7.43281 4.64546 8.96771 5.94799 9.91428C3.91421 10.4417 2.42162 11.4308 1.42779 12.3041C0.520537 13.1013 0 14.2544 0 15.4678V18.5H18V15.4678C18 14.2544 17.4795 13.1013 16.5722 12.3041ZM5.20312 5.70312C5.20312 3.60956 6.90646 1.90625 9 1.90625C11.0935 1.90625 12.7969 3.60958 12.7969 5.70312C12.7969 7.79667 11.0935 9.5 9 9.5C6.90646 9.5 5.20312 7.79667 5.20312 5.70312ZM16.5938 17.0938H1.40625V15.4678C1.40625 14.659 1.75244 13.8908 2.35603 13.3605C3.61209 12.2569 5.7843 10.9414 9 10.9414C12.2157 10.9414 14.3879 12.2569 15.644 13.3605C16.2476 13.8908 16.5938 14.659 16.5938 15.4678V17.0938Z" fill="#5D5D5D"/>
</svg>
