<svg width="20" height="18" viewBox="0 0 20 18" fill="none" xmlns="http://www.w3.org/2000/svg">
<path d="M10.0171 6.94958L14.0699 11.0023L13.0113 12.0609L10.7657 9.81529V17.2527H9.26861V9.81529L7.023 12.0609L5.96441 11.0023L10.0171 6.94958ZM16.0032 6.64418C15.9147 3.37763 13.2299 0.747375 9.9423 0.747375C8.43203 0.747375 6.98497 1.30613 5.86766 2.32061C4.90492 3.19474 4.25437 4.344 3.99964 5.60299C3.08951 5.7987 2.25878 6.26948 1.61603 6.96236C0.83085 7.80896 0.398438 8.91143 0.398438 10.0667C0.398438 12.5844 2.44676 14.6327 4.96451 14.6327C4.97048 14.6327 4.97636 14.6327 4.98068 14.6326H5.75047V13.1355H4.97449L4.96024 13.1357C3.26996 13.1333 1.89551 11.7575 1.89551 10.0667C1.89551 8.47796 3.13418 7.1343 4.71548 7.00774L5.33677 6.95801L5.40041 6.33803C5.63989 4.00429 7.59248 2.24441 9.9423 2.24441C12.4601 2.24441 14.5084 4.29274 14.5084 6.81049V8.12044H15.5937C16.9764 8.12044 18.1013 9.24533 18.1013 10.628C18.1013 12.0107 16.9764 13.1356 15.5937 13.1356L14.2838 13.1354V14.6325H15.5694C15.5775 14.6327 15.5856 14.6328 15.5937 14.6328C17.802 14.6328 19.5984 12.8363 19.5984 10.6281C19.5984 8.55803 18.0199 6.84983 16.0032 6.64418Z" fill="white"/>
</svg>
