<svg width="48" height="48" viewBox="0 0 48 48" fill="none" xmlns="http://www.w3.org/2000/svg">
<rect width="48" height="48" rx="10" fill="url(#paint0_linear_511_40378)"/>
<g clip-path="url(#clip0_511_40378)">
<path d="M20.8998 14.2119L21.82 16.7605C22.3249 18.1576 23.1326 19.4265 24.1855 20.4767C25.2385 21.5269 26.5107 22.3324 27.9116 22.836L30.4669 23.7537C30.5174 23.7722 30.5609 23.8056 30.5917 23.8496C30.6225 23.8935 30.639 23.9458 30.639 23.9994C30.639 24.053 30.6225 24.1053 30.5917 24.1493C30.5609 24.1932 30.5174 24.2267 30.4669 24.2451L27.9116 25.1629C26.5107 25.6664 25.2385 26.472 24.1855 27.5222C23.1326 28.5723 22.3249 29.8412 21.82 31.2384L20.8998 33.787C20.8813 33.8373 20.8478 33.8808 20.8037 33.9115C20.7597 33.9421 20.7072 33.9586 20.6535 33.9586C20.5997 33.9586 20.5473 33.9421 20.5032 33.9115C20.4592 33.8808 20.4256 33.8373 20.4071 33.787L19.487 31.2384C18.9821 29.8412 18.1744 28.5723 17.1214 27.5222C16.0685 26.472 14.7962 25.6664 13.3954 25.1629L10.84 24.2451C10.7896 24.2267 10.746 24.1932 10.7152 24.1493C10.6845 24.1053 10.668 24.053 10.668 23.9994C10.668 23.9458 10.6845 23.8935 10.7152 23.8496C10.746 23.8056 10.7896 23.7722 10.84 23.7537L13.3954 22.836C14.7962 22.3324 16.0685 21.5269 17.1214 20.4767C18.1744 19.4265 18.9821 18.1576 19.487 16.7605L20.4071 14.2119C20.4251 14.161 20.4585 14.117 20.5026 14.0859C20.5467 14.0547 20.5994 14.038 20.6535 14.038C20.7075 14.038 20.7603 14.0547 20.8044 14.0859C20.8485 14.117 20.8819 14.161 20.8998 14.2119ZM32.4023 8.08722L32.8687 9.37752C33.1246 10.0849 33.5337 10.7274 34.0669 11.2591C34.6 11.7909 35.2442 12.1989 35.9535 12.4541L37.2472 12.9193C37.2728 12.9286 37.295 12.9455 37.3106 12.9678C37.3262 12.9901 37.3346 13.0167 37.3346 13.0439C37.3346 13.0711 37.3262 13.0976 37.3106 13.1199C37.295 13.1422 37.2728 13.1591 37.2472 13.1684L35.9535 13.6336C35.2442 13.8888 34.6 14.2968 34.0669 14.8286C33.5337 15.3603 33.1246 16.0028 32.8687 16.7102L32.4023 18.0005C32.393 18.0261 32.376 18.0481 32.3537 18.0637C32.3313 18.0793 32.3047 18.0877 32.2774 18.0877C32.2502 18.0877 32.2235 18.0793 32.2012 18.0637C32.1789 18.0481 32.1619 18.0261 32.1525 18.0005L31.6862 16.7102C31.4303 16.0028 31.0212 15.3603 30.488 14.8286C29.9548 14.2968 29.3107 13.8888 28.6014 13.6336L27.3077 13.1684C27.2821 13.1591 27.2599 13.1422 27.2443 13.1199C27.2286 13.0976 27.2202 13.0711 27.2202 13.0439C27.2202 13.0167 27.2286 12.9901 27.2443 12.9678C27.2599 12.9455 27.2821 12.9286 27.3077 12.9193L28.6014 12.4541C29.3107 12.1989 29.9548 11.7909 30.488 11.2591C31.0212 10.7274 31.4303 10.0849 31.6862 9.37752L32.1525 8.08722C32.1619 8.06165 32.1789 8.03957 32.2012 8.02397C32.2235 8.00837 32.2502 8 32.2774 8C32.3047 8 32.3313 8.00837 32.3537 8.02397C32.376 8.03957 32.393 8.06165 32.4023 8.08722ZM32.4023 29.9995L32.8687 31.2898C33.1246 31.9972 33.5337 32.6397 34.0669 33.1714C34.6 33.7032 35.2442 34.1112 35.9535 34.3664L37.2472 34.8316C37.2728 34.8409 37.295 34.8578 37.3106 34.8801C37.3262 34.9024 37.3346 34.9289 37.3346 34.9562C37.3346 34.9834 37.3262 35.0099 37.3106 35.0322C37.295 35.0545 37.2728 35.0714 37.2472 35.0807L35.9535 35.5459C35.2442 35.8011 34.6 36.2091 34.0669 36.7409C33.5337 37.2726 33.1246 37.9151 32.8687 38.6225L32.4023 39.9128C32.393 39.9384 32.376 39.9604 32.3537 39.976C32.3313 39.9916 32.3047 40 32.2774 40C32.2502 40 32.2235 39.9916 32.2012 39.976C32.1789 39.9604 32.1619 39.9384 32.1525 39.9128L31.6862 38.6225C31.4303 37.9151 31.0212 37.2726 30.488 36.7409C29.9548 36.2091 29.3107 35.8011 28.6014 35.5459L27.3077 35.0807C27.2821 35.0714 27.2599 35.0545 27.2443 35.0322C27.2286 35.0099 27.2202 34.9834 27.2202 34.9562C27.2202 34.9289 27.2286 34.9024 27.2443 34.8801C27.2599 34.8578 27.2821 34.8409 27.3077 34.8316L28.6014 34.3664C29.3107 34.1112 29.9548 33.7032 30.488 33.1714C31.0212 32.6397 31.4303 31.9972 31.6862 31.2898L32.1525 29.9995C32.1949 29.8829 32.3611 29.8829 32.4023 29.9995Z" fill="white"/>
</g>
<defs>
<linearGradient id="paint0_linear_511_40378" x1="0" y1="0" x2="48" y2="48" gradientUnits="userSpaceOnUse">
<stop stop-color="#067AFF"/>
<stop offset="1" stop-color="#48BCFF"/>
</linearGradient>
<clipPath id="clip0_511_40378">
<rect width="32" height="32" fill="white" transform="translate(8 8)"/>
</clipPath>
</defs>
</svg>
